<?xml version="1.0" standalone="no"?>
<!DOCTYPE svg PUBLIC "-//W3C//DTD SVG 1.1//EN" "http://www.w3.org/Graphics/SVG/1.1/DTD/svg11.dtd" >
<!--
2013-9-30: Created.
-->
<svg>
<metadata>
Created by iconfont
</metadata>
<defs>

<font id="iconfont" horiz-adv-x="1024" >
  <font-face
    font-family="iconfont"
    font-weight="500"
    font-stretch="normal"
    units-per-em="1024"
    ascent="896"
    descent="-128"
  />
    <missing-glyph />
    
    <glyph glyph-name="x" unicode="x" horiz-adv-x="1001"
d="M281 543q-27 -1 -53 -1h-83q-18 0 -36.5 -6t-32.5 -18.5t-23 -32t-9 -45.5v-76h912v41q0 16 -0.5 30t-0.5 18q0 13 -5 29t-17 29.5t-31.5 22.5t-49.5 9h-133v-97h-438v97zM955 310v-52q0 -23 0.5 -52t0.5 -58t-10.5 -47.5t-26 -30t-33 -16t-31.5 -4.5q-14 -1 -29.5 -0.5
t-29.5 0.5h-32l-45 128h-439l-44 -128h-29h-34q-20 0 -45 1q-25 0 -41 9.5t-25.5 23t-13.5 29.5t-4 30v167h911zM163 247q-12 0 -21 -8.5t-9 -21.5t9 -21.5t21 -8.5q13 0 22 8.5t9 21.5t-9 21.5t-22 8.5zM316 123q-8 -26 -14 -48q-5 -19 -10.5 -37t-7.5 -25t-3 -15t1 -14.5
t9.5 -10.5t21.5 -4h37h67h81h80h64h36q23 0 34 12t2 38q-5 13 -9.5 30.5t-9.5 34.5q-5 19 -11 39h-368zM336 498v228q0 11 2.5 23t10 21.5t20.5 15.5t34 6h188q31 0 51.5 -14.5t20.5 -52.5v-227h-327z" />
    

    
    <glyph glyph-name="shangchuan" unicode="&#58998;" d="M1142.725209-212 1142.725209-212 39.404318-212c-21.751183 0-39.404318 17.61373-39.404318 39.364913l0 315.037519c0 21.751183 17.653134 39.364913 39.404318 39.364913s39.404318-17.653134 39.404318-39.364913l0-275.672606 1024.512256 0 0 275.672606c0 21.751183 17.653134 39.364913 39.404318 39.364913 21.751183 0 39.404318-17.653134 39.404318-39.364913l0-315.037519C1182.129526-194.38627 1164.476392-212 1142.725209-212zM760.463924 508.626159 630.469081 666.046408l0-562.969485c0-21.790588-17.653134-39.443722-39.404318-39.443722-21.751183 0-39.404318 17.653134-39.404318 39.443722L551.660446 664.549044l-128.733905-155.962289c-15.446492-15.525301-40.507638-15.525301-55.954131 0-15.446492 15.525301-15.446492 40.665256 0 56.151152l194.736137 235.913649c8.235502 8.274907 19.189903 11.781891 29.947281 11.23023 10.796783 0.55166 21.711779-2.955324 29.947281-11.23023l194.736137-235.913649c15.446492-15.525301 15.446492-40.665256 0-56.151152C800.932158 493.100858 775.910417 493.100858 760.463924 508.626159z"  horiz-adv-x="1183" />

    
    <glyph glyph-name="gengxin" unicode="&#58943;" d="M511.500501-127.001003C229.010133-127.001003 0 102.009131 0 384.499499 0 666.989824 229.010133 895.999957 511.500501 895.999957 793.990827 895.999957 1023.00096 666.989824 1023.00096 384.499499 1023.00096 102.009131 793.990827-127.001003 511.500501-127.001003L511.500501-127.001003ZM511.500501 840.701099C259.558101 840.701099 55.298901 636.441899 55.298901 384.499499 55.298901 132.557099 259.558101-71.702101 511.500501-71.702101 763.471317-71.702101 967.702101 132.557099 967.702101 384.499499 967.702101 636.441899 763.471317 840.701099 511.500501 840.701099L511.500501 840.701099ZM662.762539 419.196288 539.2352 544.258133 539.2352 100.162048C539.2352 84.56128 526.618155 71.915861 511.045803 71.915861 495.473493 71.915861 482.856448 84.56128 482.856448 100.162048L482.856448 542.041643 360.892032 419.935104C349.923157 409.079936 332.162731 409.079936 321.193899 419.935104 310.225067 430.761856 310.225067 448.351787 321.193899 459.206955L486.721152 624.961536C487.914624 627.604309 489.534379 630.133376 491.722453 632.321493 502.719744 643.375573 520.593835 643.375573 531.591083 632.321493L702.602752 459.178539C713.628416 448.124459 713.628416 430.221952 702.602752 419.196288 691.63392 408.170581 673.759829 408.170581 662.762539 419.196288L662.762539 419.196288Z"  horiz-adv-x="1024" />

    
    <glyph glyph-name="iconset0329" unicode="&#59108;" d="M469.333333 640l-42.666667 0 0-213.333333 42.666667 0L469.333333 640zM256 640l-42.666667 0 0-213.333333 42.666667 0L256 640zM384 640l-85.333333 0 0-213.333333 85.333333 0L384 640zM640 640l-42.666667 0 0-213.333333 42.666667 0L640 640zM554.666667 640l-42.666667 0 0-213.333333 42.666667 0L554.666667 640zM704 725.333333 149.333333 725.333333C136.533333 725.333333 128 716.8 128 704l0-768c0-12.8 8.533333-21.333333 21.333333-21.333333 6.4 0 10.666667 2.133333 14.933333 6.4l89.6 72.533333 72.533333-72.533333c4.266667-4.266667 8.533333-6.4 14.933333-6.4s10.666667 2.133333 14.933333 6.4l70.4 70.4 70.4-70.4c4.266667-4.266667 8.533333-6.4 14.933333-6.4s10.666667 2.133333 14.933333 6.4l72.533333 72.533333 89.6-72.533333c4.266667-4.266667 8.533333-6.4 14.933333-6.4 12.8 0 21.333333 8.533333 21.333333 21.333333L725.333333 704C725.333333 716.8 716.8 725.333333 704 725.333333zM682.666667-19.2l-70.4 55.466667C608 40.533333 603.733333 42.666667 597.333333 42.666667c-6.4 0-10.666667-2.133333-14.933333-6.4L512-34.133333l-70.4 70.4C437.333333 40.533333 433.066667 42.666667 426.666667 42.666667c-6.4 0-10.666667-2.133333-14.933333-6.4L341.333333-34.133333l-70.4 70.4C266.666667 40.533333 262.4 42.666667 256 42.666667c-6.4 0-10.666667-2.133333-14.933333-6.4L170.666667-19.2 170.666667 682.666667l512 0L682.666667-19.2zM426.666667 341.333333 213.333333 341.333333l0-42.666667 213.333333 0L426.666667 341.333333zM874.666667 853.333333 320 853.333333c-12.8 0-21.333333-8.533333-21.333333-21.333333l0-64 42.666667 0L341.333333 810.666667l512 0 0-701.866667-70.4 55.466667C778.666667 168.533333 774.4 170.666667 768 170.666667l0-51.2 2.133333 2.133333 89.6-72.533333c4.266667-4.266667 8.533333-6.4 14.933333-6.4 12.8 0 21.333333 8.533333 21.333333 21.333333L896 832C896 844.8 887.466667 853.333333 874.666667 853.333333zM640 256 213.333333 256l0-42.666667 426.666667 0L640 256zM512 170.666667 213.333333 170.666667l0-42.666667 298.666667 0L512 170.666667z"  horiz-adv-x="1024" />

    
    <glyph glyph-name="dianzan" unicode="&#59156;" d="M880.123149 539.295925c-34.93158 9.172917-117.167536 9.06547-237.399875 12.232602 5.710049 26.249851 6.991228 49.90255 6.991228 91.908246 0 100.345406-73.087599 188.730409-137.765667 188.730409-45.662992 0-83.328847-37.338397-83.903945-83.260286-0.627287-56.308447-18.025539-153.594167-111.871927-202.921619-6.883781-3.634784-26.575262-13.328563-29.444613-14.610766l1.475608-1.257643c-14.693654 12.657274-35.042097 22.367427-55.932893 22.367427l-83.908038 0c-46.266743 0-83.901899-37.650505-83.901899-83.901899l0-447.503057c0-46.267766 37.635155-83.901899 83.901899-83.901899l83.908038 0c33.29429 0 61.122079 20.100804 74.616418 48.28368 0.326435-0.107447 0.925069-0.272199 1.310855-0.325411 1.856277-0.49221 4.013407-1.037632 6.688329-1.749854 0.49221-0.107447 0.76441-0.160659 1.286296-0.325411 16.116049-3.985778 47.116087-11.416004 113.40177-26.65508 14.230096-3.224438 89.25686-19.227923 167.070086-19.227923l152.86762 0c46.623877 0 81.174787 17.381879 100.184747 53.915957 18.577101 32.514531 109.831454 206.678176 109.744473 452.145797C959.426309 478.563726 934.99385 523.617851 880.123149 539.295925L880.123149 539.295925zM260.234953 21.078317c0-15.459087-12.506848-27.969005-27.964912-27.969005l-83.908038 0c-15.458063 0-27.967982 12.510942-27.967982 27.969005L120.394021 468.582397c0 15.458063 12.510942 27.954679 27.967982 27.954679l83.908038 0c15.458063 0 27.964912-12.496615 27.964912-27.954679L260.234953 21.078317 260.234953 21.078317zM902.874315 425.646516C891.211694 144.560676 800.424992 17.526421 800.424992 17.526421c-8.466835-15.238053-22.070668-24.417109-50.91153-24.417109L596.644819-6.890688c-76.829829 0-153.005766 17.426905-154.973584 17.86488-116.183116 26.765597-122.302487 28.840862-129.59559 30.916127l4.097318 410.930093c0 42.516326 0.955768 31.778774 0 31.248701 127.770012 52.901861 166.660764 168.925341 167.805844 264.195148 0.165776 13.382798 10.488889 27.967982 27.969005 27.967982 29.581736 0 81.83175-59.353806 81.83175-132.795469 0-66.315358-2.650363-77.783551-25.89374-146.900721 279.682887 0 277.714046-4.000104 302.405401-10.475586 30.590715-8.740058 33.211403-34.088376 33.211403-42.823318C903.502625 433.650817 903.229402 435.043536 902.874315 425.646516L902.874315 425.646516zM902.874315 425.646516"  horiz-adv-x="1024" />

    
    <glyph glyph-name="bianji" unicode="&#58963;" d="M536.064 228.7104l0.7168 0.7168 37.1712 37.1712 20.736 20.736 94.72 94.72c7.8336 7.8336 7.9872 20.9408 0 28.928-7.7824 7.7824-20.9408 7.9872-28.928 0l-94.976-94.976-49.4592-49.4592-37.1712-37.1712-0.7168-0.7168-128.5632-128.5632c0 0 0 0 0 0l-94.72-22.1184-49.6128-11.5712L160.768 56.064l44.0832 188.7744c0 0 0 0 0 0l129.28 129.28 36.608 36.608 50.2272 50.2272 94.72 94.72c7.8336 7.8336 7.9872 20.9408 0 28.928-7.7824 7.7824-20.9408 7.9872-28.928 0L391.8336 489.728 370.7392 468.6336 334.1824 432.0256l0 0L168.448 266.2912l-0.1024-0.1024c0 0 0.0512 0.0512 0.0512 0.0512-0.9216-0.9216-1.7408-1.9456-2.4576-3.0208-1.8944-2.816-2.9696-6.0416-3.328-9.3696l-46.7968-200.448c-1.1776-4.9152-1.8944-10.496-1.3312-16.128 0-0.2048 0.0512-0.4608 0.0512-0.6656 0-0.1536 0.0512-0.3584 0.0512-0.512 0.0512-0.256 0.0512-0.4608 0.1024-0.7168 0-0.1536 0.0512-0.3072 0.1024-0.512 0.0512-0.256 0.1024-0.512 0.1536-0.7168 0.0512-0.1536 0.0512-0.3072 0.1024-0.4608 0.0512-0.3072 0.1024-0.5632 0.2048-0.8704 0-0.1024 0.0512-0.2048 0.0512-0.3072 0.1024-0.4096 0.2048-0.768 0.3072-1.1776 0.0512-0.1024 0.0512-0.2048 0.1024-0.256 0.1024-0.3072 0.2048-0.6144 0.3072-0.9216 0.0512-0.1536 0.1024-0.256 0.1536-0.4096 0.1024-0.256 0.1536-0.512 0.256-0.768 0.0512-0.1536 0.1024-0.3072 0.2048-0.4608 0.1024-0.2048 0.2048-0.4608 0.3072-0.6656 0.0512-0.1536 0.1536-0.3072 0.2048-0.512 0.1024-0.2048 0.2048-0.4608 0.3072-0.6656 0.1024-0.1536 0.1536-0.3584 0.256-0.512 0.1024-0.2048 0.2048-0.4096 0.3584-0.6656 0.1024-0.1536 0.2048-0.3584 0.256-0.512 0.1024-0.2048 0.256-0.4096 0.3584-0.6144 0.1024-0.1536 0.2048-0.3072 0.3072-0.512 0.1536-0.2048 0.256-0.4096 0.4096-0.6144 0.1024-0.1536 0.2048-0.3072 0.3072-0.4608 0.1536-0.2048 0.3072-0.4096 0.4608-0.6144 0.1024-0.1536 0.2048-0.3072 0.3584-0.4608 0.1536-0.2048 0.3584-0.4608 0.512-0.6656 0.1024-0.1536 0.2048-0.3072 0.3584-0.4096 0.2048-0.256 0.4096-0.4608 0.6144-0.7168 0.1024-0.1024 0.2048-0.256 0.3072-0.3584 0.3072-0.3584 0.6656-0.7168 1.024-1.024s0.7168-0.6656 1.024-1.024c0.1024-0.1024 0.256-0.2048 0.3584-0.3072 0.256-0.2048 0.4608-0.4096 0.7168-0.6144 0.1536-0.1024 0.3072-0.2048 0.4096-0.3584 0.2048-0.1536 0.4608-0.3584 0.6656-0.512 0.1536-0.1024 0.3072-0.2048 0.4608-0.3584 0.2048-0.1536 0.4096-0.3072 0.6144-0.4608 0.1536-0.1024 0.3072-0.2048 0.4608-0.3072 0.2048-0.1536 0.4096-0.256 0.6144-0.4096 0.1536-0.1024 0.3072-0.2048 0.512-0.3072 0.2048-0.1024 0.4096-0.256 0.6144-0.3584 0.1536-0.1024 0.3584-0.2048 0.512-0.256 0.2048-0.1024 0.4096-0.2048 0.6656-0.3584 0.1536-0.1024 0.3584-0.1536 0.512-0.256 0.2048-0.1024 0.4608-0.2048 0.6656-0.3072 0.1536-0.0512 0.3072-0.1536 0.512-0.2048 0.2048-0.1024 0.4608-0.2048 0.6656-0.3072 0.1536-0.0512 0.3072-0.1536 0.4608-0.2048 0.256-0.1024 0.512-0.2048 0.768-0.256 0.1536-0.0512 0.3072-0.1024 0.4096-0.1536 0.3072-0.1024 0.6144-0.2048 0.9216-0.256 0.1024-0.0512 0.2048-0.0512 0.256-0.1024 0.4096-0.1024 0.768-0.2048 1.1776-0.3072 0.1024-0.0512 0.2048-0.0512 0.3072-0.0512 0.3072-0.0512 0.5632-0.1536 0.8704-0.2048 0.1536-0.0512 0.3072-0.0512 0.4608-0.1024 0.256-0.0512 0.512-0.1024 0.7168-0.1536 0.1536-0.0512 0.3072-0.0512 0.512-0.1024 0.256-0.0512 0.4608-0.0512 0.7168-0.1024 0.1536 0 0.3584-0.0512 0.512-0.0512 0.2048-0.0512 0.4608-0.0512 0.6656-0.0512 5.5808-0.5632 11.1616 0.2048 16.128 1.3312l96.7168 22.5792 103.936 24.2688c3.1744 0.3072 6.2976 1.3824 9.0624 3.1744 1.1776 0.7168 2.2016 1.5872 3.1744 2.56 0 0 0.0512 0.0512 0.0512 0.0512L536.064 228.7104 536.064 228.7104zM167.6288 265.5232 167.6288 265.5232c0.2048 0.2048 0.4608 0.4608 0.6656 0.6656L167.6288 265.5232zM565.504 592.7936l131.84-131.84 20.9408-20.9408c7.8336-7.8336 21.0432-8.0896 29.0304-0.1024 5.5296 5.5296 7.168 13.7728 4.8128 21.0432-0.9728 2.9184-2.56 5.6832-4.9152 8.0384l-8.5504 8.5504-156.928 156.928-7.9872 7.9872c-2.3552 2.3552-5.2224 3.9936-8.2432 4.9664-7.0656 2.2528-15.2064 0.7168-20.7872-4.864-7.7824-7.7824-7.936-20.992 0.1024-29.0304L565.504 592.7936zM760.4736 512.1536 760.4736 512.2048 760.4736 512.1536ZM616.3968 656.2816 616.3968 656.2816 616.3968 656.2816C616.3456 656.3328 616.3456 656.2304 616.3968 656.2816zM631.6544 671.6416l13.056 13.056 0.0512-0.0512 58.4704 58.4704 144.0768-144.0768-58.4704-58.4704 0.5632-0.5632-13.056-13.056c-8.3968-8.3968-8.1408-21.0944-0.1536-29.0816 6.4-6.4 16.5888-7.6288 24.4736-3.2768 1.6384 0.9216 3.1744 2.048 4.608 3.4304l13.056 13.056 0 0 52.8384 52.8384 6.3488 6.3488c16.0768 16.0768 15.9232 41.9328-0.1024 57.9584l-6.2464 6.2464-131.84 131.84-6.4512 6.4512 0 0c-0.0512 0.0512-0.1024 0.1024-0.1536 0.1536-0.8192 0.8192-1.6896 1.5872-2.56 2.3552-0.512 0.4096-1.024 0.8704-1.536 1.2288-16.2816 12.4416-39.0144 11.008-53.7088-3.6352l-6.5536-6.5536 0 0-37.0176-37.0176-15.616-15.616-13.056-13.056c-0.3584-0.3584-0.7168-0.768-1.0752-1.1776-7.3216-8.3968-6.7072-20.2752 0.9216-27.904C610.3552 663.7568 623.616 663.552 631.6544 671.6416zM370.2272 62.9248l0.6656 0.6656C370.688 63.3344 370.432 63.1296 370.2272 62.9248L370.2272 62.9248zM899.9936 20.8896c-3.1232 1.9968-6.8096 3.1744-10.752 3.1744L480 24.064c-11.1104 0-20.5312-9.1648-20.5312-20.48 0-10.9568 9.1648-20.48 20.5312-20.48l409.2416 0c3.9424 0 7.6288 1.1776 10.752 3.1232 5.7856 3.6352 9.728 10.0352 9.728 17.3568C909.7728 10.7008 905.8304 17.2032 899.9936 20.8896z"  horiz-adv-x="1024" />

    
    <glyph glyph-name="iconzhenghe32" unicode="&#59185;" d="M824.556544 374.92736 662.060032 174.92992 662.060032 719.130624l-0.182272 0c-1.8944 20.08576-18.799616 35.80416-39.380992 35.80416-20.581376 0-37.486592-15.7184-39.380992-35.80416l-0.182272 0 0-651.870208 0.186368 0.044032c-0.119808-1.252352-0.186368-2.520064-0.186368-3.803136 0-21.849088 17.713152-39.563264 39.563264-39.563264 12.351488 0 23.37792 5.66272 30.63296 14.53056l0.004096-0.003072 232.659968 286.35648L824.556544 374.92736zM385.119232 754.934784c-12.34944 0-23.375872-5.661696-30.630912-14.528512l-0.004096 0.003072-232.66304-286.35648 61.238272-50.105344 162.496512 199.994368 0-544.198656 0.182272 0c1.893376-20.086784 18.798592-35.806208 39.380992-35.806208s37.487616 15.719424 39.380992 35.806208l0.182272 0L424.682496 716.329984l-0.023552-0.007168C424.15104 737.731584 406.648832 754.934784 385.119232 754.934784z"  horiz-adv-x="1024" />

    
    <glyph glyph-name="qq" unicode="&#58933;" d="M910.858 223.278c-18.835 109.494-97.937 181.226-97.937 181.226 11.302 99.415-30.13 117.046-30.13 117.046-8.718 307.585-273.041 302.201-278.595 302.054-5.551 0.148-269.911 5.531-278.593-302.053 0 0-41.435-17.63-30.135-117.046 0 0-79.096-71.733-97.93-181.226 0 0-10.059-185.007 90.396-22.655 0 0 22.605-61.656 64.032-117.046 0 0-74.084-25.183-67.797-90.61 0 0-2.522-72.982 158.198-67.962 0 0 112.995 8.798 146.896 56.63h29.87c33.901-47.832 146.893-56.63 146.893-56.63 160.687-5.020 158.199 67.962 158.199 67.962 6.254 65.427-67.798 90.61-67.798 90.61 41.432 55.39 64.032 117.046 64.032 117.046 100.42-162.352 90.401 22.654 90.401 22.654z"  horiz-adv-x="1024" />

    
    <glyph glyph-name="pingbijingpintouzirenlistchuang" unicode="&#58899;" d="M815.2832 201.984 779.1616 237.1328C844.6976 303.1296 870.2464 374.5536 870.2464 374.5536 870.2464 374.5536 782.3872 640.0512 512 640.0512 464.8448 640.0512 423.6288 631.7312 387.1232 618.5728L344.9088 659.6352C391.8336 678.8608 446.8736 691.0976 512 691.0976 839.3216 691.0976 921.6 383.9488 921.6 383.9488 921.6 383.9488 896 286.9504 815.2832 201.984ZM512 512C507.2384 512 502.7328 511.104 498.0992 510.592L454.5792 552.9344C472.704 559.104 491.8016 563.2 512 563.2 610.9696 563.2 691.2 482.9696 691.2 384 691.2 365.5168 687.5904 348.0576 682.3936 331.264L638.9504 373.5552C639.232 377.0624 640 380.416 640 384 640 454.7072 582.6816 512 512 512ZM837.8368 58.1632C827.8272 48.1792 811.6224 48.1792 801.6384 58.1632L186.1632 673.6384C176.1536 683.6224 176.1536 699.8272 186.1632 709.8368 196.1728 719.8464 212.3776 719.8464 222.3616 709.8368L837.8368 94.3616C847.8208 84.3776 847.8208 68.1728 837.8368 58.1632ZM512 256C516.992 256 521.728 256.9216 526.5664 257.4592L569.9584 215.2192C551.7056 208.9472 532.4032 204.8 512 204.8 413.0304 204.8 332.8 285.0304 332.8 384 332.8 402.688 336.4608 420.3264 341.76 437.2736L385.1264 395.0848C384.7936 391.3728 384 387.7888 384 384 384 313.3184 441.3184 256 512 256ZM249.0112 527.5136C180.0448 455.1424 153.7536 374.5536 153.7536 374.5536 153.7536 374.5536 240.5632 127.872 512 127.872 559.8464 127.872 601.6768 135.8336 638.592 148.4544L679.5008 108.672C632.448 89.2416 577.28 76.8 512 76.8 183.3728 76.8 102.4 383.9488 102.4 383.9488 102.4 383.9488 127.744 481.4592 208.8448 566.6048L249.0112 527.5136Z"  horiz-adv-x="1024" />

    
    <glyph glyph-name="gengduo" unicode="&#58882;" d="M512-63.466667c-60.3936 0-118.997333 11.835733-174.183467 35.1776-53.287467 22.538667-101.1392 54.797867-142.222933 95.882667-41.0848 41.083733-73.344 88.9344-95.883733 142.222933C76.369067 265.000533 64.533333 323.605333 64.533333 384c0 60.3936 11.835733 118.997333 35.1776 174.183467 22.539733 53.288533 54.798933 101.138133 95.883733 142.222933 41.083733 41.083733 88.935467 73.344 142.222933 95.882667C393.002667 819.630933 451.607467 831.466667 512 831.466667s118.997333-11.835733 174.183467-35.1776c53.287467-22.538667 101.138133-54.798933 142.222933-95.882667 41.0848-41.0848 73.344-88.9344 95.883733-142.222933C947.630933 502.997333 959.466667 444.3936 959.466667 384c0-60.394667-11.835733-118.999467-35.1776-174.184533-22.539733-53.288533-54.798933-101.1392-95.883733-142.222933-41.0848-41.0848-88.935467-73.344-142.222933-95.882667C630.997333-51.630933 572.3936-63.466667 512-63.466667zM512 767.466667c-211.444267 0-383.466667-172.0224-383.466667-383.466667 0-211.444267 172.0224-383.466667 383.466667-383.466667S895.466667 172.555733 895.466667 384C895.466667 595.444267 723.444267 767.466667 512 767.466667zM512 388.8m-64 0a60 60 0 1 0 128 0 60 60 0 1 0-128 0ZM320 388.8m-64 0a60 60 0 1 0 128 0 60 60 0 1 0-128 0ZM704 388.8m-64 0a60 60 0 1 0 128 0 60 60 0 1 0-128 0Z"  horiz-adv-x="1024" />

    
    <glyph glyph-name="edit" unicode="&#58905;" d="M791.582118 432.730353c-5.150118 8.914824-14.546824 15.179294-25.750588 15.179294-11.173647 0-20.540235-6.234353-25.720471-15.058824-2.680471 0.692706-4.336941 0.060235-4.336941-4.487529l0-293.044706c0-21.534118-17.980235-39.062588-40.026353-39.062588L235.580235 96.256c-22.046118 0-40.026353 17.528471-40.026353 39.062588 0 0 0 507.934118 0 527.480471 0 21.564235 17.950118 39.062588 40.026353 39.062588L595.727059 701.861647c2.288941 0 3.463529 0.451765 4.156235 1.144471 1.957647-0.391529 3.794824-1.144471 5.842824-1.144471 16.564706 0 30.027294 13.131294 30.027294 29.304471 0 16.173176-13.462588 29.304471-30.027294 29.304471-2.409412 0-4.517647-0.813176-6.806588-1.325176C598.196706 759.958588 597.142588 760.470588 595.727059 760.470588L215.582118 760.470588C171.429647 760.470588 135.529412 725.413647 135.529412 682.315294l0-566.543059c0-43.098353 35.900235-78.155294 80.052706-78.155294l500.224 0c44.152471 0 80.022588 35.056941 80.022588 78.155294L795.828706 428.363294C795.828706 430.893176 794.142118 432.158118 791.582118 432.730353zM848.203294 751.013647c-12.438588 10.691765-31.412706 9.517176-42.375529-2.620235L342.949647 235.279059c-10.962824-12.137412-9.758118-30.659765 2.680471-41.351529 12.438588-10.691765 31.412706-9.517176 42.375529 2.620235l462.908235 513.084235C861.816471 721.769412 860.641882 740.321882 848.203294 751.013647z"  horiz-adv-x="1024" />

    
    <glyph glyph-name="1mofabang" unicode="&#58970;" d="M526.121626 173.77811399999996c3.838422-3.79851301 8.81885299-6.477528 14.459317-7.365758 11.258415-1.7519 22.258956 3.721765 27.439956 13.758352l85.648682 165.879981 186.376805-28.827559c11.25432199-1.722224 21.37175 2.948145 26.526143 12.992919 5.142114 10.044774 1.223874 20.28602199-6.829546 28.246321l-129.10031 127.61037601 83.016739 171.30657399c5.176906 10.048867 4.936429 23.943318-3.130294 31.925107l-0.502443-0.478907c-8.06263 7.964392-21.393239 8.934486-31.56388 3.815909l-175.516456-82.362846L475.792357 737.951381c-8.05341999 7.951089-18.424628 11.835559-28.586059 6.742565-10.161431-5.084808-13.907755-14.120602-12.172227-25.247011l28.743648-184.751794-168.490435-85.178985c-10.14812801-5.126764-15.801894-16.137539-14.013155-27.263947 0.88720599-5.562692 3.541663-10.531867 7.393387-14.33038 3.834328-3.79441901 8.849552-6.43045599 14.476713-7.306406l185.804776-29.233811 29.832446-183.290513C519.68093601 182.54580199999998 522.282181 177.56741699999998 526.121626 173.77811399999996zM471.012494 294.573271l-5.683443 27.225061c-1.722224 14.018272-13.138228 27.14422-27.40107 29.391401l-23.212678 3.653203L150.564158 124.75458400000002c-14.59029999-12.707416-18.835997-33.347502-10.275018-50.51551 4.682649-9.391904 10.694573-19.111267 17.983583-26.298969 9.67536-9.53619 22.412452-17.559934 34.169217-23.74275 18.092054-9.511631 40.569998-5.055133 53.80544 10.304693L471.012494 294.573271zM742.44446299 123.92468299999996c1.058099-0.166799 2.155083-0.025583 3.15280601 0.469698 1.981121 0.995677 3.064802 3.097548 2.697435 5.263887l-6.098905 35.804461 32.779567 16.483416c1.976004 0.99977 3.0208 2.879584 2.645247 5.04183-0.375553 2.162246-2.203178 3.337002-4.411473 3.682879l-35.424814 5.545296-7.15700401 36.364209c-0.37146 2.166339-2.050706 4.32858501-4.26309399 4.678556l-0.026606-0.132006c-2.208295 0.34178399-4.42477599-1.007957-5.421476-2.960425l-17.930371-32.783661-35.127032 5.776563c-2.208295 0.345877-4.301979-0.213871-5.299703-2.162246-1.000793-1.948375-0.524956-3.794419 1.062192-5.35393799l26.360368-25.87532101-16.492626-32.43369c-0.992607-1.952468-0.581238-4.323469 1.014096-5.874801 0.796132-0.777713 1.801019-1.260713 2.859118-1.427512 1.048889-0.162706 2.15099-0.013303 3.143597 0.483001l32.735565 16.355503 26.356274-25.520233C740.393757 124.578576 741.39455 124.08738900000003 742.44446299 123.92468299999996zM861.448834 443.260685c0.892323-0.137123 1.823532-0.021489 2.667759 0.401136 1.679245 0.842181 2.597151 2.623757 2.287089 4.460592l-5.167696 30.335912 27.77253 13.967106c1.67515199 0.846274 2.55826499 2.435469 2.238994 4.26821-0.31927201 1.832741-1.867534 2.828418-3.738138 3.119037l-30.011524 4.700045-6.064113 30.809703c-0.31415501 1.836835-1.735527 3.67059899-3.611248 3.965312l-0.021489-0.11563401c-1.870604 0.294712-3.747347-0.850367-4.595668-2.50402999l-15.193027-27.77662301-29.757744 4.89242701c-1.870604 0.290619-3.64194701-0.179079-4.490268-1.832741-0.848321-1.64957-0.445138-3.213181 0.900509-4.533246l22.333658-21.922289-13.973246-27.481911c-0.839111-1.653663-0.494257-3.66139 0.861624-4.97736099 0.673335-0.657986 1.52575-1.068332 2.418073-1.20954801 0.8913-0.137123 1.827625-0.013303 2.666736 0.410346l27.733645 13.856589 22.333658-21.61939C859.709213 443.816341 860.556511 443.40190199 861.448834 443.260685zM675.176406 704.484152c0.538259 0.414439 0.952698 0.982374 1.150196 1.653663 0.384763 1.345648-0.153496 2.76395-1.359974 3.541663l-19.919678 12.830213 6.370081 22.285562c0.38067 1.345648-0.069585 2.645247-1.277086 3.41784299-1.206478 0.769526-2.566452 0.440022-3.69925201-0.42262499l-18.14526599-13.882172-20.650319 12.586666c-1.206478 0.777713-2.981914 0.948605-4.118807 0.080841l0.057305-0.068562c-1.1328-0.867764-1.446955-2.478448-0.944512-3.79032601l7.970532-22.57208799-18.122753-13.642718c-1.1328-0.862647-1.775436-2.072195-1.27197-3.38407401 0.502443-1.311879 1.600451-1.89721 3.043313-1.84604399l23.982204 0.828878 8.429996-21.751397c0.50756-1.311879 1.827625-2.158153 3.27458-2.10187099 0.721431 0.029676 1.394766 0.282433 1.933025 0.69687199 0.542352 0.410346 0.948605 0.982374 1.14508 1.657756l6.40999 22.208814 23.811312 0.982374C673.965835 703.8261660000001 674.63917101 704.069713 675.176406 704.484152z"  horiz-adv-x="1024" />

    
    <glyph glyph-name="tongbu" unicode="&#58914;" d="M169.486624 349.812363c19.530822 0 35.379789 15.845896 35.379789 35.380812 0 169.07986 137.547703 306.627563 306.627563 306.627563 103.519702 0 197.579961-50.817386 254.129908-134.927015l-41.806151 0c-19.534915 0-35.380812-15.848966-35.380812-35.379789 0-19.553335 15.845896-35.382858 35.380812-35.382858l127.022998 0c19.491936 0 35.379789 15.829524 35.379789 35.382858L886.220518 648.516466c0 19.553335-15.887852 35.380812-35.379789 35.380812-19.573801 0-35.379789-15.827477-35.379789-35.380812l0-39.761586c-70.351278 96.127338-181.691085 153.825434-303.965943 153.825434-208.064756 0-377.38714-169.307034-377.38714-377.38714C134.106836 365.65826 149.952732 349.812363 169.486624 349.812363zM853.501326 420.572964c-19.531845 0-35.379789-15.827477-35.379789-35.379789 0-169.080883-137.548726-306.650075-306.628586-306.650075-95.369068 0-183.167716 43.571355-240.616126 116.582205l33.82334 0c19.530822 0 35.379789 15.826454 35.379789 35.379789 0 19.552312-15.848966 35.378765-35.379789 35.378765L177.67512 265.883859c-19.530822 0-35.338856-15.826454-35.338856-35.378765l0-126.982066c0-19.575848 15.808034-35.379789 35.338856-35.379789 19.533892 0 35.379789 15.803941 35.379789 35.379789l0 50.77543c70.718645-91.64321 179.76727-146.516981 298.439066-146.516981 208.061686 0 377.388163 169.326477 377.388163 377.410676C888.882138 404.745487 873.035218 420.572964 853.501326 420.572964z"  horiz-adv-x="1024" />

    
    <glyph glyph-name="enlarge" unicode="&#59042;" d="M161.568 707.648l0-0.16 0-202.912c0-15.52 12.608-28.096 28.096-28.096s28.096 12.608 28.096 28.096l0 130.88 162.656-178.944c10.432-11.52 28.096-12.288 39.616-1.856 11.52 10.432 12.288 28.096 1.856 39.616L252.48 680.448l140.704 0c15.52 0 28.096 12.608 28.096 28.096s-12.608 28.096-28.096 28.096L190.272 736.64c-6.912 0-13.376-2.464-18.112-6.752C171.712 729.6 171.232 729.152 170.784 728.672 164.64 723.136 161.568 715.328 161.568 707.648L161.568 707.648 161.568 707.648zM862.432 707.648l0-0.16 0-202.912c0-15.52-12.608-28.096-28.096-28.096-15.52 0-28.096 12.608-28.096 28.096l0 130.88-162.656-179.104c-10.432-11.52-28.096-12.288-39.616-1.856-11.52 10.432-12.288 28.096-1.856 39.616l169.408 186.304-140.704 0c-15.52 0-28.096 12.608-28.096 28.096s12.608 28.096 28.096 28.096l202.912 0c6.912 0 13.376-2.464 18.112-6.752 0.448-0.32 0.928-0.768 1.376-1.216C859.36 723.136 862.432 715.328 862.432 707.648L862.432 707.648 862.432 707.648zM161.568 60.511999999999944l0 0.16 0 202.912c0 15.52 12.608 28.096 28.096 28.096s28.096-12.608 28.096-28.096l0-130.88 162.656 178.944c10.432 11.52 28.096 12.288 39.616 1.856 11.52-10.432 12.288-28.096 1.856-39.616L252.48 87.71199999999999l140.704 0c15.52 0 28.096-12.608 28.096-28.096s-12.608-28.096-28.096-28.096L190.272 31.519999999999982c-6.912 0-13.376 2.464-18.112 6.752-0.448 0.32-0.928 0.768-1.376 1.216C164.64 44.99199999999996 161.568 52.672000000000025 161.568 60.511999999999944L161.568 60.511999999999944 161.568 60.511999999999944zM862.432 60.511999999999944l0 0.16 0 202.912c0 15.52-12.608 28.096-28.096 28.096-15.52 0-28.096-12.608-28.096-28.096l0-130.88-162.656 178.944c-10.432 11.52-28.096 12.288-39.616 1.856-11.52-10.432-12.288-28.096-1.856-39.616l169.408-186.304-140.704 0c-15.52 0-28.096-12.608-28.096-28.096s12.608-28.096 28.096-28.096l202.912 0c6.912 0 13.376 2.464 18.112 6.752 0.448 0.32 0.928 0.768 1.376 1.216C859.36 44.99199999999996 862.432 52.672000000000025 862.432 60.511999999999944L862.432 60.511999999999944 862.432 60.511999999999944z"  horiz-adv-x="1024" />

    
    <glyph glyph-name="wenjian" unicode="&#59288;" d="M-2490.0608-236.19072M668.73856 894.27968 240.49152 894.27968c-75.9552 0-137.74848-61.78816-137.74848-137.73824l0-745.08288c0-75.94496 61.79328-137.73312 137.74848-137.73312l543.02208 0c75.9552 0 137.74848 61.78816 137.74848 137.73312L921.26208 612.0448 668.73856 894.27968zM689.02912 634.74176 689.02912 761.46688l113.39264-126.72512L689.02912 634.74176zM176.16896 756.54144c0 35.46112 28.85632 64.31232 64.32256 64.31232l375.10656 0 0-259.53792 232.23296 0 0-549.85728c0-35.46112-28.85632-64.3072-64.32256-64.3072L240.49152-52.84864c-35.46624 0-64.32256 28.84608-64.32256 64.3072L176.16896 756.54144zM334.08 376.32l355.84 0c21.21216 0 38.4 17.18784 38.4 38.4s-17.18784 38.4-38.4 38.4l-355.84 0c-21.21216 0-38.4-17.18784-38.4-38.4S312.86784 376.32 334.08 376.32zM334.08 222.72l355.84 0c21.21216 0 38.4 17.18784 38.4 38.4s-17.18784 38.4-38.4 38.4l-355.84 0c-21.21216 0-38.4-17.18784-38.4-38.4S312.86784 222.72 334.08 222.72zM334.08 79.36l355.84 0c21.21216 0 38.4 17.18784 38.4 38.4s-17.18784 38.4-38.4 38.4l-355.84 0c-21.21216 0-38.4-17.18784-38.4-38.4S312.86784 79.36 334.08 79.36z"  horiz-adv-x="1024" />

    
    <glyph glyph-name="icon85" unicode="&#59004;" d="M704.14-75.253c-122.070-53.71-263.67-53.71-387.689 0-122.070 51.761-211.92 142.58-265.631 264.65-51.76 124.020-51.76 265.63 0 387.7 53.711 124.020 143.561 213.86 265.631 265.62 124.020 53.71 265.619 53.71 387.689 0 124.030-51.76 213.87-141.6 265.63-265.62 53.71-122.070 53.71-263.681 0-387.7-51.76-122.070-141.6-212.889-265.63-264.65v0 0zM677.779 780.217c-105.47 45.9-227.539 45.9-333.989 0-106.44-45.9-183.59-123.050-229.49-229.49-43.95-105.47-43.95-228.521 0-334.96 45.9-105.47 123.050-182.62 229.49-228.521 106.45-45.899 228.52-45.899 333.989 0 106.44 45.9 183.59 123.051 229.49 228.521 45.9 106.439 45.9 229.49 0 334.96-45.9 106.44-123.049 183.59-229.49 229.49v0 0zM709.029 349.558h-164.069v-169.92c0-15.63-12.69-28.33-28.32-28.33h-11.72c-15.62 0-28.32 12.7-28.32 28.33v169.92h-164.060c-18.55 0-34.181 14.649-34.181 33.2 0 19.53 15.631 35.16 34.181 35.16h164.060v169.92c0 15.62 12.7 28.32 28.32 28.32h11.72c15.63 0 28.32-12.7 28.32-28.32v-169.92h164.069c18.551 0 34.181-15.63 34.181-35.16 0-18.551-15.63-33.2-34.181-33.2v0z"  horiz-adv-x="1024" />

    
    <glyph glyph-name="tianjia1" unicode="&#58891;" d="M953.98 657.095c-37.193 74.177-97.458 134.442-171.634 171.634-430.514 215.858-856.699-210.324-640.839-640.839 37.193-74.177 97.458-134.442 171.634-171.634 430.513-215.858 856.699 210.324 640.839 640.839zM809.492 376.923h-216.182v-229.957h-91.135v229.957h-216.181v91.135h213.519c0.726 0.823 1.623 1.507 2.665 1.956v200.449h91.135v-202.407h216.181v-91.134z"  horiz-adv-x="1024" />

    
    <glyph glyph-name="imgkongyemianlist" unicode="&#58918;" d="M458.23488-58.88c126.06976 0 252.13952 0.37376 378.20928-0.54784 13.19424-0.1024 37.72416 10.1888 37.95968-10.09152 0.18432-16.47104-24.21248-8.448-37.30944-8.50944-147.61472-0.65536-295.22944-0.41984-442.84928-0.41984-47.22176 0-70.87104 15.45216-87.04 59.70944-60.75904 166.42048-121.22112 332.94848-181.32992 499.60448-15.872 44.00128 1.99168 83.45088 45.34784 99.41504C280.72448 620.5952 390.43072 660.3776 500.33152 699.56608c45.00992 16.0512 82.90816-0.19968 99.84512-44.18048 25.70752-66.75456 48.96768-134.44096 73.43104-201.6768 3.15904-8.66816 5.48864-17.60256-4.92032-21.79584-12.31872-4.96128-16.54784 5.26336-19.75808 14.1312-22.92224 63.2576-45.53216 126.63296-68.352 189.93152-14.68928 40.76544-36.84864 51.968-77.04064 37.51936-105.00096-37.75488-209.92-75.73504-314.62912-114.27328-40.98048-15.08352-50.688-37.67296-36.18816-77.6448 57.51808-158.53568 114.92864-317.1072 172.41088-475.65312 3.2-8.81664 6.3488-17.664 10.112-26.23488 11.2384-25.5488 34.07872-37.30944 60.36992-27.9808 111.55968 39.6288 222.93504 79.77984 334.0288 120.69888 31.06304 11.43296 40.7808 36.11648 30.09024 68.10112-4.58752 13.73184-9.32864 27.44832-14.848 40.81664-4.15744 10.05056-4.80768 18.87744 6.67136 23.2192 10.03008 3.79392 13.60896-4.88448 16.27136-11.904 9.03168-23.808 21.53984-46.90944 22.54848-72.84224 1.35168-34.74944-20.5824-60.78976-61.24032-75.54048-84.86912-30.78656-169.79968-61.42976-254.68928-92.14976-5.51936-2.00704-10.94144-4.22912-16.39936-6.3488C458.10688-55.78752 458.1632-57.32864 458.23488-58.88zM487.68512-110.11584c-38.29248 0-76.5696-0.11264-114.85184 0.10752-6.25152 0.04096-16.03072-2.24256-15.84128 7.54176 0.18944 9.3184 9.74848 7.49568 16.1792 7.50592 77.41952 0.11264 154.8288 0.11264 232.24832-0.01536 6.37952-0.01024 16 1.78688 15.8208-7.78752-0.1792-9.58976-9.90208-7.19872-16.15872-7.23968C565.95456-110.22848 526.8224-110.11584 487.68512-110.11584zM765.30176 800c-0.80896-1.85344-1.43872-6.84032-4.27008-9.24672-19.40992-16.512-38.91712-32.92672-59.15648-48.36864-6.7072-5.10976-15.5392-2.97984-20.49024 4.02432-5.9392 8.3968-6.28736 18.60096 1.69984 25.63072 17.82272 15.72352 35.96288 31.27296 55.29088 45.07136C750.08 825.48224 764.93824 816.27136 765.30176 800zM560.81408 845.77792c-1.0496 15.3344 1.3312 24.20224 12.73344 26.46528 10.81856 2.14528 18.70848-3.71712 21.50912-13.5168 5.79072-20.28544 10.67008-40.86272 14.98112-61.53216 2.24256-10.73664-3.90144-18.16576-14.02368-20.83328-10.79808-2.83648-18.54976 2.5088-21.34016 12.86656C569.17504 809.58464 564.58752 830.1824 560.81408 845.77792zM742.51776 663.12192c15.37024-3.17952 33.69984-6.58944 51.81952-10.8544 11.06944-2.60608 18.72384-9.58976 15.98976-21.89824-2.72896-12.26752-12.59008-15.3088-23.78752-13.35296-17.50016 3.06176-34.87232 6.85056-52.31104 10.21952-12.16 2.34496-21.248 8.14592-19.7888 21.85216C716.06784 664.46848 728.15104 663.83872 742.51776 663.12192zM322.45248 186.65984c-3.0976 0-6.02624 1.8944-7.18336 4.97152-1.50016 3.968 0.50688 8.40192 4.47488 9.90208l55.23456 20.8384c3.95776 1.48992 8.40192-0.50688 9.89696-4.46976 1.50016-3.968-0.50688-8.40704-4.47488-9.90208l-55.23456-20.8384C324.27008 186.81856 323.34848 186.65984 322.45248 186.65984zM401.94048 216.64768c-3.0976 0-6.02624 1.88928-7.18336 4.97664-1.50016 3.96288 0.50688 8.40192 4.47488 9.89696l55.23968 20.84352c3.96288 1.49504 8.40192-0.51712 9.89696-4.46976 1.50016-3.96288-0.50688-8.40704-4.47488-9.9072l-55.23968-20.8384C403.75808 216.81152 402.8416 216.64768 401.94048 216.64768zM481.42848 246.64064c-3.0976 0-6.02624 1.89952-7.18336 4.97152-1.50016 3.968 0.50688 8.40704 4.47488 9.9072l55.23456 20.83328c3.95264 1.50016 8.40704-0.50176 9.89696-4.46976 1.50016-3.96288-0.50688-8.40192-4.46976-9.90208l-55.23968-20.8384C483.2512 246.80448 482.3296 246.64064 481.42848 246.64064zM560.9216 276.63872c-3.10272 0-6.03136 1.88928-7.18848 4.97664-1.50016 3.96288 0.512 8.3968 4.48 9.89696l55.23968 20.8384c3.95776 1.49504 8.40192-0.50688 9.89696-4.47488 1.50016-3.96288-0.50688-8.40192-4.47488-9.89696l-55.23968-20.84352C562.73408 276.79744 561.81248 276.63872 560.9216 276.63872zM375.1424 56.73472c-3.10272 0-6.02624 1.88928-7.18336 4.97152-1.50016 3.968 0.50688 8.40704 4.47488 9.89696l55.23968 20.84864c3.96288 1.50016 8.40192-0.51712 9.89696-4.48 1.50016-3.96288-0.50688-8.40192-4.47488-9.89696L377.856 57.23136C376.96 56.88832 376.0384 56.73472 375.1424 56.73472zM454.6304 86.71744c-3.10272 0-6.02624 1.89952-7.18336 4.97664-1.50016 3.96288 0.50688 8.40192 4.47488 9.90208l55.23968 20.8384c3.95776 1.50016 8.3968-0.50688 9.89696-4.47488 1.50016-3.95776-0.512-8.40192-4.48-9.90208l-55.23968-20.83328C456.448 86.88128 455.53152 86.71744 454.6304 86.71744zM598.912 239.13984l-13.7216-73.58464 69.29408 28.30848 171.94496 213.36064-55.57248 45.28128L598.912 239.13984zM644.80256 201.74848l-46.33088-19.91168 10.13248 49.39776L644.80256 201.74848zM848.37376 457.21088l-32.98816 26.88c-6.24128 5.08416-15.4112 4.1472-20.49024-2.08896l-17.6896-21.7088 55.57248-45.27104 17.6896 21.70368C855.552 442.96192 854.6048 452.12672 848.37376 457.21088z"  horiz-adv-x="1024" />

    
    <glyph glyph-name="shipin" unicode="&#58919;" d="M1003.37664 833.80736H2.38592V-62.19264h1024v896h-23.00928z m-171.84768-65.7408h91.3408v-96.32768h-91.3408V768.06656z m90.6752-169.6768v-427.75552H107.02336V598.38976h815.1808z m-272.128 169.6768h91.19744v-96.32768h-91.19744V768.06656z m-181.60128 0h91.3408v-96.32768h-91.3408V768.06656z m-181.504 0H378.2656v-96.32768H286.97088V768.06656z m-181.5296 0h91.29472v-96.32768H105.44128V768.06656z m91.29472-767.2576H105.44128v96.60928h91.29472v-96.60928z m182.8096 0H288.25088v96.60928H379.5456v-96.60928z m182.83008 0h-91.3408v96.60928h91.3408v-96.60928z m182.73792 0h-91.19744v96.60928h91.19744v-96.60928z m182.88128 0h-91.3408v96.60928h91.3408v-96.60928zM440.6016 237.14304l2.7392-0.68608c1.46944 0 2.816 0.49664 4.04992 1.45408l211.38432 142.70976c1.42848 1.30048 2.3552 3.25632 2.3552 5.31968 0 1.95072-0.92672 3.9424-2.35008 5.28384L447.39072 533.93408a6.46144 6.46144 0 0 1-6.78912 0.768 6.97344 6.97344 0 0 1-3.58912-6.08256v-285.50656c-0.00512-2.48832 1.42336-4.93568 3.58912-5.96992z"  horiz-adv-x="1026" />

    
    <glyph glyph-name="icondianzan" unicode="&#59265;" d="M45.339116 477.709265c-23.50125 0-42.611493-19.373233-42.611493-43.214221l-0.432859-519.27673c0-23.849174 19.027355-43.218314 42.614563-43.218314 1.034563 0 1.89414 0.518816 2.928702 0.604774l151.437038-0.085958L199.275068 475.548042l-152.127769 1.728364C46.545594 477.361341 46.026778 477.709265 45.339116 477.709265L45.339116 477.709265zM1023.718079 386.025123c1.378393 25.137517-4.046153 50.792826-18.078751 73.777307-22.64065 37.102013-61.035098 57.248865-100.981902 59.401902-2.752694 0.5137-5.250584 1.635243-8.176217 1.635243l-237.858316 0.343831c16.269545 46.829562 25.136493 97.104595 25.136493 149.531642 0 34.006512-3.960195 67.061348-10.933003 98.9138l-0.601704-0.084934c-12.655228 55.783491-61.638849 97.447403-120.350019 97.447403-68.440765 0-123.880425-56.298214-123.880425-125.855406 0-2.238994 0.51677-4.218068 0.601704-6.459109-1.031493-114.494661-75.239612-212.983789-177.423899-246.212588l0-616.031355 561.372477-0.25992 0-0.089028c23.157419-0.084934 46.573735 6.117324 67.578118 19.718087 18.856463 12.135388 32.628118 29.011754 42.442648 47.691185 0.860601 1.031493 1.378393 2.149966 2.152013 3.270487 0.173962 0.343831 0.430812 0.603751 0.602727 0.862647l-0.086981 0.085958c2.324952 3.698229 4.649903 7.486508 5.856381 12.048407l92.025926 412.530544c1.121544 4.218068 0.861624 8.351202 0.774643 12.56927 0.086981 0.517793 0.086981 1.121544 0.086981 1.635243C1023.718079 383.617283 1023.975952 384.822738 1023.718079 386.025123L1023.718079 386.025123z"  horiz-adv-x="1024" />

    
    <glyph glyph-name="weidenglutouxiang" unicode="&#58967;" d="M911.872-39.936l-22.016 80.384c-14.848 54.272-49.152 100.352-96.768 130.048l-0.512 0.512c-9.216 5.12-74.752 41.472-117.248 63.488 102.4 56.32 172.544 165.888 172.544 290.816 0 49.664-11.264 98.816-32.256 143.36l28.672 111.616c5.12 19.968-0.512 40.448-14.848 54.784-14.336 14.336-34.816 19.968-54.784 14.848l-109.568-28.16c-46.08 23.04-97.28 35.328-148.992 35.328-183.296 0-332.288-148.48-332.288-331.776 0-88.576 34.304-172.032 97.28-235.008 22.016-22.016 46.08-40.448 72.192-54.784-45.056-24.576-111.616-59.392-121.344-65.024l-0.512-0.512c-49.664-29.184-85.504-76.288-100.352-132.096l-20.992-78.336c-3.584-13.824 4.608-27.648 17.92-31.232 2.048-0.512 4.608-1.024 6.656-1.024 11.264 0 21.504 7.68 24.576 18.944l20.992 78.336c11.264 42.496 38.912 78.336 76.8 100.864 45.568 25.6 152.576 79.36 155.648 83.456 32.768-10.752 67.584-16.384 102.912-16.384 34.816 0 68.096 5.12 99.84 15.36 3.072-4.096 108.032-57.344 151.04-81.92 36.352-22.528 62.976-57.856 74.24-99.328l22.016-80.384c3.584-13.824 17.92-21.504 31.232-17.92 13.824 4.096 21.504 17.92 17.92 31.744z m-396.288 284.672c-74.752 0-145.408 29.184-198.656 82.432-53.248 53.248-82.432 123.392-81.92 198.656 0 154.624 125.952 280.576 280.576 280.576 46.592 0 92.672-11.776 133.632-33.792l8.704-4.608 128.512 32.768c2.56 0.512 4.608-0.512 5.632-1.536 1.024-1.024 2.56-3.072 1.536-5.632l-33.28-130.56 4.608-8.704c20.48-39.424 31.232-83.968 31.232-129.024 0.512-154.624-125.44-280.576-280.576-280.576z"  horiz-adv-x="1024" />

    
    <glyph glyph-name="video-entity" unicode="&#58995;" d="M512-71.11111100000005A455.111111 455.111111 0 1 1 512 839.111111a455.111111 455.111111 0 0 1 0-910.222222zM398.222222 554.666667l288.768-170.154667L398.222222 214.30044399999997V554.666667z"  horiz-adv-x="1024" />

    
    <glyph glyph-name="shanchu" unicode="&#58907;" d="M730.020 166.237c-119.285-119.137-312.63-119.137-431.844 0-119.286 119.1-119.286 312.26 0 431.375 119.213 119.12 312.56 119.12 431.844 0 119.247-119.116 119.247-312.277 0-431.375zM695.411 563.061c-24.473 24.473-53.009 43.398-84.789 56.29-28.446 11.852-61.493 18.736-96.146 18.736-0.134 0-0.266 0-0.4 0-33.321 0-65.808-6.294-96.504-18.736-31.814-12.892-60.311-31.818-84.827-56.29-24.511-24.457-43.436-52.975-56.325-84.712-12.483-30.699-18.778-63.13-18.778-96.415 0-33.303 6.294-65.75 18.778-96.448 12.889-31.738 31.814-60.239 56.328-84.717s53.013-43.398 84.827-56.253c28.457-11.875 61.521-18.773 96.195-18.773 0.116 0 0.233 0 0.349 0 0.064 0 0.162 0 0.26 0 34.692 0 67.773 6.898 97.946 19.398 30.077 12.231 58.617 31.152 83.089 55.628 24.516 24.476 43.441 52.979 56.367 84.717 11.852 28.415 18.736 61.428 18.736 96.047 0 0.142 0 0.283 0 0.425 0 33.264-6.294 65.693-18.736 96.393-19.863 48.003-52.361 87.422-93.383 115.208zM617.848 278.257c-9.538-9.458-25.068-9.458-34.606 0l-69.145 69.108-69.18-69.108c-9.534-9.458-25.072-9.458-34.606 0-9.5 9.538-9.5 25.072 0 34.573l69.18 69.103-69.18 69.086c-9.5 9.5-9.5 25.052 0 34.552 9.534 9.5 25.072 9.5 34.606 0l69.18-69.103 69.145 69.103c4.439 4.404 10.553 7.126 17.303 7.126s12.863-2.722 17.304-7.128c9.499-9.5 9.499-25.050-0.002-34.55l-69.18-69.086 69.18-69.103c4.403-4.433 7.125-10.541 7.125-17.287s-2.722-12.853-7.126-17.288z"  horiz-adv-x="1024" />

    
    <glyph glyph-name="cloud-disk-services" unicode="&#59205;" d="M732.32 481.024v-318.368l112.896-56.272 56.512 34.768-105.712 49.008-0.368 251.344 117.808 53.76 213.648-102.384v65.216l-213.664 103.6zM833.296 341.664v70.88l79.968 35.248 278.096-130.688-0.4-217.744-183.184-99.36-38.224 42.272 161.184 97.984 0.112 141.584-217.424 100.368zM689.76 359.536l-60.096-36.528v-222.416l209.088-99.584 247.248 147.808v117.472l-55.616 21.744-0.304-113.488-190.704-110.24-149.616 76.208zM580.064 1.104h-368.192c-104.368 20.736-181.888 111.872-181.888 220.688 0 118.88 93.376 216.528 211.2 224.608 2.656 177.776 148.096 321.6 326.48 321.6 141.968 0 240.304-49.584 305.344-170.784l-72.72-31.392c-47.792 95.872-121.936 130.208-232.624 130.208-140.352 0-254.544-114.192-254.544-254.544 0-9.2 0.512-18.56 1.536-27.856l4.88-44.736-44.72 5.072c-5.344 0.642-11.532 1.008-17.805 1.008-0.001 0-0.002-0-0.003-0-85.504 0-155.056-68.72-155.056-153.184 0-81.92 64.816-149.12 147.568-152.976l4.064-0.192h326.48v-67.52zM580.064 1.104h-368.192c-104.368 20.736-181.888 111.872-181.888 220.688 0 118.88 93.376 216.528 211.2 224.608 71.936-4.928 78.352-77.52 78.352-77.52l-44.72 5.072c-5.344 0.642-11.532 1.008-17.805 1.008-0.001 0-0.002-0-0.003-0-85.504 0-155.056-68.72-155.056-153.184 0-81.92 64.816-149.12 147.568-152.976l4.064-0.192h326.48v-67.504z"  horiz-adv-x="1221" />

    
    <glyph glyph-name="gongneng" unicode="&#58883;" d="M775.815-63.396h-527.625c-101.28 0-183.586 82.39-183.586 183.67l-0 527.537c0 101.197 82.308 183.585 183.586 183.585h527.623c101.196 0 183.58-82.388 183.58-183.585v-527.536c0.003-101.282-82.384-183.671-183.578-183.671zM248.19 788.788c-77.726 0-140.975-63.249-140.975-140.977v-527.536c0-77.813 63.249-141.063 140.975-141.063h527.623c77.726 0 140.974 63.25 140.974 141.063v527.536c0 77.728-63.247 140.977-140.974 140.977h-527.623zM161.478 690.559v0 0zM408.534 641.798c11.426 0 21.204-3.957 29.323-11.872 8.124-7.911 12.188-17.571 12.188-28.984v-164.715c0-11.427-4.064-21.2-12.188-29.324-8.12-8.124-17.897-12.184-29.323-12.184h-164.712c-11.426 0-21.090 4.060-28.987 12.184-7.898 8.124-11.855 17.897-11.869 29.324v164.715c0 11.426 3.958 21.087 11.869 28.984 7.911 7.902 17.575 11.859 28.987 11.872h164.712zM408.534 312.395c11.426 0 21.204-3.957 29.323-11.869 8.124-7.914 12.188-17.574 12.188-28.988v-165.367c0-11.426-4.064-21.087-12.188-28.986-8.12-7.898-17.897-11.856-29.323-11.869h-164.712c-11.426 0-21.090 3.957-28.987 11.869-7.898 7.915-11.855 17.574-11.869 28.986v165.367c0 11.426 3.958 21.087 11.869 28.988 7.911 7.898 17.575 11.855 28.987 11.869h164.712zM738.589 312.395c11.426 0 21.090-3.957 28.991-11.869 7.898-7.914 11.851-17.574 11.866-28.988v-165.367c0-11.426-3.955-21.087-11.866-28.986-7.915-7.898-17.579-11.856-28.991-11.869h-164.709c-11.426 0-21.204 3.957-29.327 11.869-8.121 7.915-12.185 17.574-12.185 28.986v165.367c0 11.426 4.063 21.087 12.185 28.988 8.123 7.898 17.901 11.855 29.327 11.869h164.709zM830.172 569.337c8.782-8.782 13.175-19.107 13.175-30.966 0-11.865-4.393-21.968-13.175-30.318l-122.55-122.549c-8.785-8.782-18.994-13.176-30.63-13.176-11.639 0-21.852 4.393-30.633 13.176l-122.551 122.549c-8.346 8.35-12.519 18.452-12.519 30.318 0 11.859 4.172 22.184 12.519 30.966l122.551 122.549c8.781 8.348 18.994 12.522 30.633 12.522 11.636 0 21.845-4.174 30.63-12.522l122.55-122.549z"  horiz-adv-x="1024" />

    
    <glyph glyph-name="shangdian1" unicode="&#58884;" d="M512.284 891.748C231.852 891.8 4.532 665.2 4.268 385.3c-0.284-280.7 226.416-509 505.448-509.032 282.484-0.032 509.616 225.516 510.016 506.448 0.384 281.516-226.364 508.968-507.448 509.032zM298.516 649.584c146.468 0.068 292.916 0.068 439.384 0 22.916-0.016 34.632-8.968 35.116-26.152 0.5-17.9-11.832-27.6-35.568-27.616-73.216-0.068-146.452-0.016-219.684-0.016s-146.468-0.032-219.684 0.016c-22.984 0.016-34.632 8.784-35.116 26.032-0.496 18.004 11.72 27.736 35.552 27.736z m483.468-522.9c-0.316-29.2-14.984-44.232-42.3-44.268-147.884-0.132-295.784-0.132-443.668 0-25.1 0.016-41.184 13.852-41.584 38.5-0.932 56.516-0.3 113.068-0.3 168.132 21.116 3.668 42.552 3.532 60.284 11.568 17.184 7.784 30.568 23.968 46.716 37.368 15.8-26.5 40.416-46.252 77.384-45.968 36.332 0.284 61.384 18.468 79.016 49.2 41.9-67.884 122.032-64.216 157.868-3.632 15.068-12.516 28.816-28.9 46.384-37.1 17.168-8.016 38.252-7.668 60.368-11.448v-16.468c-0.02-48.636 0.348-97.268-0.168-145.884z m-8.036 224.6c-44.216-8.084-78.584 13.216-97.3 62.516-13.116-41.368-39.316-65.068-82.216-63.816-39.432 1.148-63.032 24.668-76.268 63.216-15.084-41.984-41.948-65.148-85.6-63.168-34.816 1.584-57.116 20.868-74.1 63.1-2.9-6.948-4.948-12.468-7.468-17.784-14.4-30.432-46.252-48.448-79.884-45.332-33.5 3.1-60.648 24.816-68.848 57.448-2.416 9.616-2.084 21.416 1.184 30.732 14.116 40.168 30.084 79.684 44.684 119.684 3.868 10.616 9.948 13.668 20.8 13.632 165.232-0.284 330.484-0.332 495.716 0.068 11.984 0.032 17.7-3.816 21.868-14.984 13.5-36.148 24.884-73.648 43.168-107.332 20.932-38.564-12.684-90.096-55.736-97.98z"  horiz-adv-x="1024" />

    
    <glyph glyph-name="tupian" unicode="&#58941;" d="M927.968 799.968H96A96 96 0 0 1 0 704v-639.968a96 96 0 0 1 96-96h831.968a96.032 96.032 0 0 1 96.032 96V704a96.064 96.064 0 0 1-96.032 95.968z m16-637.984l-200.832 267.808s-11.648 21.664-52.672 21.664c-46.528 0-60.512-20.992-60.512-20.992l-175.936-271.52s-9.568-18.176-33.056-18.176c-24.576 0-36.32 18.176-36.32 18.176l-92.512 105.76s-23.712 31.36-54.528 31.36c-30.656 0-56.16-34.752-56.16-34.752L80 134.784V686.816c0 17.664 14.336 32.032 32 32.032h800a32 32 0 0 0 32-32.032l-0.032-524.832zM463.904 511.968a113.312 113.312 0 1 0-226.656 0 113.312 113.312 0 0 0 226.656 0z"  horiz-adv-x="1024" />

    
    <glyph glyph-name="loudongxiufuguize" unicode="&#59147;" d="M866.945011 115.717767m-36.836976 0a36.836977 36.836977 0 1 1 73.673953 0 36.836977 36.836977 0 1 1-73.673953 0ZM964.014814 217.016895c-29.147854 29.145807-69.001537 43.723827-109.396549 40.761355l-55.603389 55.561434c7.617491 22.134113 12.186554 45.119617 12.186553 68.302619 0 53.624315-20.437471 107.249653-61.251015 148.06115-61.536518 61.599963-155.323555 78.351486-234.458893 42.527582-0.889253-0.309038-1.736551-0.595564-2.601245-0.986467-0.143263-0.067538-0.296759-0.099261-0.438998-0.165775-0.618077-0.290619-0.982374-0.845251-1.572822-1.168616-2.635013-1.433652-5.324262-2.788509-7.553023-5.01727-0.350994-0.350994-0.458441-0.825808-0.791015-1.190105-0.532119-0.584308-0.801249-1.313925-1.28425-1.934049-4.854565-6.1777-7.358595-13.46057-7.024997-20.914332 0.002047-0.044002 0.025583-0.090051 0.02763-0.137123 0.195451-4.001127 1.102101-7.906064 2.792602-11.618619 0.090051-0.209778 0.059352-0.434905 0.155543-0.64366 0.607844-1.282203 1.694595-2.111081 2.445702-3.273556 1.206478-1.865487 2.043542-3.90289 3.679809-5.538133l86.375229-86.313831-38.437427-38.437428-86.561471 86.624916c-12.499685 12.499685-32.749892 12.499685-45.249577 0-2.248204-2.24718-3.616364-4.953825-5.05718-7.613398-0.490164-0.828878-1.27197-1.375324-1.692548-2.260483-0.105401-0.223081-0.155543-0.460488-0.260943-0.683569l-0.029676-0.073678c-37.609573-79.724763-21.079084-174.999686 41.351804-237.369175 58.490136-58.490136 142.999878-74.344219 216.377072-49.074696l54.670134-54.712089c-3.51301-40.990576 10.94426-81.641415 40.578184-111.276362 54.751998-54.749952 143.876851-54.749952 198.626803 0 27.373441 27.375487 41.062208 63.314001 41.062207 99.311866-0.002047 35.93749-13.68979 71.874981-41.064254 99.251492z m-465.00057 61.749365c-31.93841 31.892361-46.437635 76.179007-41.526788 119.438253l57.214072-57.249888c9.812483-9.812483 22.813588-15.188934 36.688597-15.126512 13.875009 0 26.812669 5.436826 36.437888 15.126512l55.93494 55.81112c9.939373 10.063193 14.939247 23.25054 14.939247 36.499285 0 13.250792-4.999874 26.501584-15.063067 36.625152l-56.215326 56.179511c42.546002 4.178159 85.920882-10.258645 117.27703-41.61684 56.688093-56.749492 56.81396-148.938124 0-205.686593-56.686047-56.688093-148.998499-56.688093-205.686593 0z m419.750993-215.063147c-29.813003-29.813003-78.313623-29.813003-108.126626 0-18.498306 18.561751-26.061562 44.99989-20.624736 70.500681 0.24764 1.124614-0.065492 2.172479 0.063445 3.286859 0.134053 1.192152 0.687662 2.328022 0.687661 3.526313 0 0.980327-0.470721 1.907443-0.561795 2.884701a30.593785 30.593785 0 0 1-1.255596 6.446829 30.729885 30.729885 0 0 1-1.89414 4.764513c-1.130753 2.276856-2.489704 4.278443-4.129041 6.217609-0.607844 0.725524-0.853437 1.629103-1.534959 2.310625l-52.575426 52.617382c7.182586 5.514597 14.562671 10.683317 21.137413 17.258059 6.572696 6.572696 11.743462 13.954827 17.258059 21.139459l52.804646-52.764737c0.313132-0.313132 0.735757-0.406253 1.058099-0.701988a31.051203 31.051203 0 0 1 9.106402-6.046717c0.309038-0.12996 0.603751-0.25685 0.914836-0.378623 3.530406-1.411139 7.192819-2.104941 11.118221-2.163269 0.302899-0.004093 0.584308-0.002047 0.887207 0.004093 2.025123 0.027629 3.982708-0.39295 6.040576 0.037862 25.313525 5.187139 51.375088-2.625804 69.625754-20.874423 29.813003-29.751604 29.686113-78.31567 0-108.065228zM522.763135-118.773871c-158.843728 0-307.219033 75.812663-405.187299 209.655997C8.137331 240.412744-12.95608 428.162826 61.169151 593.100342 136.450718 760.569518 293.388027 869.663168 480.919121 884.912477c188.500165 15.031345 361.218902-67.312058 462.968283-221.000369 9.750061-14.719236 5.719258-34.593889-9.0317-44.343951-14.812357-9.68764-34.624589-5.687536-44.343951 9.0317C801.824875 762.538359 650.79409 834.069509 486.10626 821.131849 322.169537 807.787936 185.137581 712.72586 119.543653 566.850491c-64.562435-143.655817-45.99966-307.436998 49.687656-438.156178 96.093569-131.218554 247.469208-198.843744 404.249951-180.530656 17.750269 1.99954 33.468253-10.562567 35.468816-28.093848 2.031263-17.563004-10.530844-33.437553-28.093849-35.468816-19.4684-2.25025-38.874379-3.374864-58.093092-3.374864z"  horiz-adv-x="1024" />

    
    <glyph glyph-name="zhankai" unicode="&#59080;" d="M782.336 391.9872c0 6.7584-2.6624 13.7216-7.7824 18.8416-10.4448 10.4448-27.2384 10.4448-37.6832 0L512.2048 185.9584 287.5392 410.8288c-10.4448 10.4448-27.2384 10.4448-37.6832 0-10.4448-10.4448-10.4448-27.2384 0-37.6832l243.5072-243.5072c10.4448-10.4448 27.2384-10.4448 37.6832 0l243.5072 243.5072c5.3248 5.12 7.7824 11.8784 7.7824 18.8416zM782.336 588.8c0 6.7584-2.6624 13.7216-7.7824 18.8416-10.4448 10.4448-27.2384 10.4448-37.6832 0L512.2048 382.976 287.5392 607.6416c-10.4448 10.4448-27.2384 10.4448-37.6832 0-10.4448-10.4448-10.4448-27.2384 0-37.6832l243.5072-243.5072c10.4448-10.4448 27.2384-10.4448 37.6832 0l243.5072 243.5072c5.3248 5.3248 7.7824 12.0832 7.7824 18.8416z"  horiz-adv-x="1024" />

    
    <glyph glyph-name="shangchuanwenjian" unicode="&#59040;" d="M488.753859 443.936062l-0.333809-293.316175M519.348143 443.936062a30.594285 30.594285 0 0 1-61.203083 0l-0.333808-293.316175a30.594285 30.594285 0 0 1 61.203083 0l0.333808 293.316175zM489.319882 444.690759l97.41406-106.731674M512.004354 465.328839a30.666852 30.666852 0 0 1-45.354431-41.27616l97.399547-106.731675a30.666852 30.666852 0 0 1 45.368944 41.276161l-97.41406 106.731674zM489.0151 444.632706l-97.41406-106.731675M511.699572 423.994625a30.666852 30.666852 0 0 1-45.368944 41.276161l-97.399547-106.731675a30.666852 30.666852 0 0 1 45.354431-41.27616l97.41406 106.731674zM124.162289 816.002041h377.595592c14.513418 0 26.675662-10.072312 29.897641-23.598817l41.580942-153.043991h374.591314c16.980699 0 30.739419-13.75872 30.739419-30.724906v-577.924298c0-21.668533-8.853185-41.363241-23.105361-55.615417A78.503077 78.503077 0 0 0 899.831905-47.996236H124.162289c-21.683046 0-41.363241 8.853185-55.62993 23.090848a78.488564 78.488564 0 0 0-23.090848 55.629931V737.281263c0 21.683046 8.853185 41.363241 23.090848 55.615417a78.488564 78.488564 0 0 0 55.62993 23.105361z m354.127395-61.435298h-354.127395c-4.731374 0-9.041859-1.959311-12.19127-5.108723a17.212914 17.212914 0 0 1-5.079697-12.176757v-706.55672c0-4.731374 1.944798-9.041859 5.079697-12.191271 3.149412-3.134898 7.459897-5.09421 12.19127-5.09421H899.831905c4.716861 0 9.027346 1.959311 12.176758 5.09421 3.149412 3.149412 5.09421 7.459897 5.094209 12.191271V577.923935H550.305264a30.739419 30.739419 0 0 0-30.187909 22.655445l29.636399 8.054947-29.636399-8.040433-41.842184 153.972849z"  horiz-adv-x="1024" />

    
    <glyph glyph-name="bangzhu" unicode="&#58986;" d="M176 577.978V190.02l335.98-193.978 335.98 193.98V577.976L511.98 771.956 176 577.976zM511.98 832l387.98-224v-448L511.98-64 124 160V608L511.98 832zM511.52 581.842l107.26-44.594v-111.826l-133.252-75.286v-113.708h52v83.36l133.252 75.288v176.866l-159.26 66.216-159.24-66.216v-139.794h52v105.1zM512 150m-38 0a38 38 0 1 1 76 0 38 38 0 1 1-76 0Z"  horiz-adv-x="1024" />

    
    <glyph glyph-name="zhiding" unicode="&#58902;" d="M512 384m-512 0a512 512 0 1 1 1024 0 512 512 0 1 1-1024 0ZM777.923006 352.797284L547.944084 599.754818c-9.347268 10.002028-22.397319 15.759404-35.944084 15.759403s-26.619394-5.757375-35.966662-15.759403L246.099572 352.842439c-16.662521-17.926886-12.214667-34.318472-9.482736-40.527406 2.686775-6.163778 11.605062-20.613661 36.079552-20.613662h95.79821c0.270935 0 0.541871-0.338669 0.541871-0.609604v-176.175685A51.02615 51.02615 0 0 1 419.949729 64.002822h184.12312a50.980994 50.980994 0 0 1 50.91326 50.91326v176.175685c0 0.316091 0.316091 0.564449 0.519293 0.564449h95.775632c24.47449 0 33.392777 14.449883 36.10213 20.658817 2.731931 6.25409 7.202364 22.60052-9.460158 40.482251zM264.590907 653.670944h494.840764a25.174406 25.174406 0 0 1 0 50.303656H264.590907a25.174406 25.174406 0 1 1 0-50.303656z"  horiz-adv-x="1024" />

    
    <glyph glyph-name="yuyan" unicode="&#59070;" d="M512 880.64c-273.92 0-496.64-222.72-496.64-496.64 0-111.104 35.84-216.064 103.424-303.104l2.048-3.072c0.512-1.536 1.536-2.56 3.072-3.584 94.72-118.784 236.544-186.88 388.096-186.88 154.112 0 296.448 69.632 391.168 190.976l0.512 0.512c1.024 0.512 1.536 2.048 2.048 3.072 67.072 87.552 102.4 192 102.4 302.08 0.512 273.92-222.208 496.64-496.128 496.64z m177.664-256c-16.896 63.488-40.448 127.488-70.144 191.488 95.744-24.064 181.76-79.36 243.2-157.696-55.296-14.848-113.152-26.112-173.056-33.792z m31.744-215.04c-1.536 54.784-8.192 110.08-19.456 165.376 66.048 8.704 130.56 22.016 191.488 39.936 37.376-61.952 59.392-132.608 63.488-205.312h-235.52z m-24.064-236.032c14.336 61.44 22.528 123.904 24.064 185.344h235.52c-4.608-79.872-30.208-156.16-74.752-222.72-58.88 16.384-121.344 29.184-184.832 37.376z m151.552-80.896C788.992 23.552 708.096-26.112 619.52-48.128c27.136 57.344 48.64 115.2 65.024 172.032 56.32-7.168 111.616-17.408 164.352-31.232z m-508.928 28.16c15.872-55.808 37.888-112.64 64-169.472-86.528 21.504-165.888 69.632-225.28 136.192 51.712 14.848 105.984 26.112 161.28 33.28z m46.08 500.224c17.92 66.56 43.52 134.144 77.312 205.824 32.256 3.584 65.536 3.584 97.792 0 34.304-72.192 59.392-140.288 77.824-207.36-83.968-7.168-169.984-6.656-252.928 1.536z m-32.256-211.456c1.536 53.248 8.192 107.52 19.968 161.28 90.624-9.728 185.344-10.24 276.992-2.048 11.264-53.248 17.92-107.008 19.456-159.232h-316.416z m316.416-51.2c-2.048-59.904-9.728-118.272-24.064-179.712-88.576 7.68-180.224 7.168-267.776-2.048-14.848 61.952-23.04 121.344-24.576 181.248h316.416z m-265.728 458.24c-29.696-62.976-52.736-126.464-69.632-188.928-58.88 8.192-115.712 20.48-169.472 36.352 60.928 75.264 145.408 129.024 239.104 152.576z m-101.888-458.24c1.536-61.952 10.24-125.44 24.576-187.904-62.976-9.216-123.904-22.528-181.76-39.936-46.592 67.072-73.216 145.92-78.336 227.328h235.52z m-235.52 51.2c4.096 74.752 27.136 146.944 67.072 210.432 59.904-18.944 123.392-32.768 188.928-42.496-11.776-55.808-18.432-112.128-20.48-167.936h-235.52z m565.76-281.088c-17.92-60.928-41.472-122.368-72.192-187.392-32.256-3.584-65.536-3.584-97.792 0-30.208 64.512-53.76 125.44-71.68 185.856 79.36 7.68 161.792 8.192 241.664 1.536z"  horiz-adv-x="1024" />

    
    <glyph glyph-name="xiaofeidaikuan" unicode="&#59234;" d="M267.498717 804.505235c21.793444-16.275762 44.049026-32.207354 59.772656-54.185653 16.827895-23.447411 33.194869-47.150214 49.37942-71.013549 2.943088-4.297881 5.886176-5.88496 11.265217-5.837529 41.610641 0.206746 83.221283 0.114318 124.830707 0.114318 41.379572 0 82.714147 0.092428 124.096152-0.136209 5.607677-0.024323 9.056684 1.35601 12.045986 5.953064 12.41448 18.804143 24.599107 37.771249 37.977995 55.955154 18.436865 25.150024 37.749359 49.724808 66.805663 65.748827 5.241615 2.896874 9.793672 7.493929 13.563744 12.16152 7.172865 8.942366 12.919183 18.850356 10.437016 30.598385-3.67886 17.378812-22.206936 27.723401-42.346413 23.470518-9.147895-1.954356-18.022157-5.332827-26.803991-8.550765-23.496057-8.598195-44.782366-6.322774-63.404085 10.458907-3.770071 3.401577-7.493929 6.98801-11.723706 9.83867C607.049577 896.826983 575.738527 905.150328 548.01391 881.10457c-8.644409-7.542575-17.702309-14.713007-27.126271-21.356846-2.667021-1.885036-8.598195-2.966195-10.98915-1.495867-10.574442 6.299667-21.471164 12.73676-30.345425 20.921464-19.127639 17.702309-50.713539 21.748447-73.060332 7.472038-9.976095-6.367772-19.402489-13.494423-28.689027-20.714718-13.56496-10.482014-28.554033-15.493777-46.071486-11.379534-8.41334 2.00057-16.598043 4.874337-25.057597 6.620731-10.713083 2.230423-21.564808 4.989872-32.460313 5.264723-16.551829 0.437815-29.655867-15.357568-26.988846-30.530281 2.342309-12.964181 9.425178-23.307553 20.273254-31.401045zM697.341568 609.389454C718.655848 588.075173 975.353919 383.736095 975.353919 148.121235c0-189.280684-198.778831-275.927867-301.180047-275.927867h-324.347744C247.424912-127.806632 48.646081-41.159449 48.646081 148.121235 48.646081 383.736095 305.344152 588.075173 326.658432 609.389454A100.5478 100.5478 0 0 0 396.16152 636.95962h231.67696a100.5478 100.5478 0 0 0 69.503088-27.570166z m-25.086784-391.38934H544.195192v64.091211h128.086347c17.529615 0 32.142898 14.326271 32.142898 32.045606 0 17.849463-14.355458 32.046822-32.142898 32.046822h-87.387819l82.93427 82.935487c12.498394 12.465558 12.56285 32.653682-0.064456 45.248152-12.530014 12.530014-32.909074 12.401102-45.246935 0.06324l-111.071164-111.101568-111.068732 111.101568c-12.337862 12.337862-32.750974 12.465558-45.248152-0.06324-12.660143-12.561634-12.59447-32.782594-0.097292-45.248152l82.935487-82.935487h-85.978299c-17.528399 0-32.140466-14.326271-32.140466-32.045606 0-17.849463 14.354242-32.048038 32.140466-32.048038h128.08513v-64.091211h-128.08513c-17.528399 0-32.140466-14.326271-32.140466-32.045606 0-17.849463 14.354242-32.046822 32.140466-32.046822h128.08513v-96.264513c0-17.338679 14.359107-31.919126 32.048038-31.919126 17.820276 0 32.045606 14.263031 32.045606 31.919126v96.264513h128.087563c17.528399 0 32.141682 14.326271 32.141682 32.045606 0 17.850679-14.355458 32.048038-32.142898 32.048038z"  horiz-adv-x="1024" />

    
    <glyph glyph-name="check-mark" unicode="&#58880;" d="M893.176 664.202c-14.428 14.443-37.857 14.443-52.32 0l-441.195-477.632c-0.622 0.719-1.262 1.428-1.945 2.11l-212.452 212.435c-15.091 15.124-39.643 15.124-54.735 0-15.156-15.122-15.156-39.643 0-54.767l212.421-212.435c5.397-5.397 11.993-8.857 18.929-10.403 1.343-7.022 4.728-13.73 10.16-19.164 14.46-14.445 37.856-14.445 52.32 0l468.818 507.537c14.428 14.443 14.428 37.873 0 52.319z"  horiz-adv-x="1024" />

    
    <glyph glyph-name="video-placeholder" unicode="&#58949;" d="M508 860.8C246.4 860.8 35.2 649.6 35.2 388c0-261.6 212-472.8 472.8-472.8s472.8 212 472.8 472.8C980.8 649.6 769.6 860.8 508 860.8zM508-14.399999999999977c-222.4 0-402.4 180-402.4 402.4 0 222.4 180 402.4 402.4 402.4s402.4-180 402.4-402.4C910.4 165.60000000000002 730.4-14.399999999999977 508-14.399999999999977zM688.8 420.8L444.8 561.6c-24.8 14.4-56.8-4-56.8-32.8l0-282.4c0-28.8 31.2-47.2 56.8-32.8l244 140.8C713.6 369.6 713.6 406.4 688.8 420.8z"  horiz-adv-x="1024" />

    
    <glyph glyph-name="fangda" unicode="&#58906;" d="M800 733h-573.8c-52.8 0-95.6-42.8-95.6-95.6v-573.8c0-52.8 42.8-95.6 95.6-95.6h573.8c52.8 0 95.6 42.8 95.6 95.6v573.8c0 52.8-42.8 95.6-95.6 95.6zM465.3 63.6h-214.5c-6.7 0-12.7 2.8-17 7.2-4.6 3.9-7.5 9.6-7.5 16.7v215.2c0 13.2 10.7 23.9 23.9 23.9s23.9-10.7 23.9-23.9l-0.8-157.2 162.3 162.3 33.8-33.8-162.6-162.6h158.5c13.2 0 23.9-10.7 23.9-23.9s-10.7-23.9-23.9-23.9zM800 398.3c0-13.2-10.7-23.9-23.9-23.9s-23.9 10.7-23.9 23.9l0.8 157.2-162.4-162.3-33.8 33.8 162.5 162.5h-158.5c-13.2 0-23.9 10.7-23.9 23.9s10.7 23.9 23.9 23.9h214.5c6.7 0 12.7-2.8 17-7.2 4.6-3.9 7.6-9.6 7.6-16.7v-215.1z"  horiz-adv-x="1024" />

    
    <glyph glyph-name="chengyuan" unicode="&#58929;" d="M772.283051-128H72.549717c-20.48 0-40.96 10.24-54.613333 23.893333-13.653333 17.066667-20.48 37.546667-17.066667 58.026667 23.893333 215.04 204.8 378.88 423.253334 378.88S820.069717 168.96 843.963051-46.08c3.413333-20.48-3.413333-40.96-17.066667-58.026667-13.653333-13.653333-34.133333-23.893333-54.613333-23.893333zM424.123051 261.12c-180.906667 0-334.506667-136.533333-354.986667-317.44v-3.413333H775.696384v3.413333c-17.066667 180.906667-170.666667 317.44-351.573333 317.44zM424.123051 271.36c-150.186667 0-273.066667 122.88-273.066667 273.066667s122.88 273.066667 273.066667 273.066666 273.066667-122.88 273.066666-273.066666-122.88-273.066667-273.066666-273.066667z m0 481.28c-112.64 0-204.8-92.16-204.8-204.8s92.16-204.8 204.8-204.8 204.8 92.16 204.8 204.8-92.16 204.8-204.8 204.8zM772.283051-128H72.549717c-20.48 0-40.96 10.24-54.613333 23.893333-13.653333 17.066667-20.48 37.546667-17.066667 58.026667 23.893333 215.04 204.8 378.88 423.253334 378.88S820.069717 168.96 843.963051-46.08c3.413333-20.48-3.413333-40.96-17.066667-58.026667-13.653333-13.653333-34.133333-23.893333-54.613333-23.893333zM424.123051 261.12c-180.906667 0-334.506667-136.533333-354.986667-317.44v-3.413333H775.696384v3.413333c-17.066667 180.906667-170.666667 317.44-351.573333 317.44zM424.123051 271.36c-150.186667 0-273.066667 122.88-273.066667 273.066667s122.88 273.066667 273.066667 273.066666 273.066667-122.88 273.066666-273.066666-122.88-273.066667-273.066666-273.066667z m0 481.28c-112.64 0-204.8-92.16-204.8-204.8s92.16-204.8 204.8-204.8 204.8 92.16 204.8 204.8-92.16 204.8-204.8 204.8zM953.189717-52.906667h-157.013333v68.266667H956.603051v3.413333c-20.48 180.906667-170.666667 317.44-354.986667 317.44h-3.413333v68.266667h3.413333c218.453333 0 399.36-163.84 423.253333-378.88 3.413333-20.48-3.413333-40.96-17.066666-58.026667-17.066667-10.24-34.133333-20.48-54.613334-20.48zM608.443051 346.453333v68.266667c109.226667 3.413333 201.386667 95.573333 201.386666 204.8 0 112.64-92.16 204.8-204.8 204.8-58.026667 0-109.226667-23.893333-150.186666-64.853333l-47.786667 47.786666C458.256384 865.28 526.523051 896 601.616384 896c150.186667 0 273.066667-122.88 273.066667-273.066667 3.413333-150.186667-119.466667-273.066667-266.24-276.48z"  horiz-adv-x="1025" />

    
    <glyph glyph-name="folder" unicode="&#58897;" d="M821.229577 382.808487h-15.699932v267.739905c0 34.483778-24.390965 70.509514-67.005065 70.509514H545.920063c-25.932923 0-193.445585 132.187817-218.537441 132.187816H164.215477C121.601377 853.245722 77.164963 817.219986 77.164963 782.736208v-832.096372c0-34.483778 44.436413-78.639836 107.095962-78.639836h677.059548c22.428474 0 56.912252 22.568652 56.912252 78.639836V320.429295c0 34.483778-54.529227 62.379192-97.003148 62.379192z m-601.36345-428.524024c-28.315948 0-51.305133 10.513347-51.305134 33.502532V729.468583c0 22.989185 22.989185 33.502533 51.305134 33.502533h88.031759c24.811499 0 172.138535-115.927173 197.93128-115.927173h161.064476c42.333744 0 37.287337-7.289254 37.287338-259.609583v-4.485695H382.612739c-42.473922 0-76.9577-27.895414-76.9577-62.379192V-43.192334l-85.788912-2.523203z m596.877755 41.492676c0-22.989185-22.989185-41.632854-51.305134-41.632854H397.051069V267.16167c0 22.989185 22.989185 41.632854 51.305133 41.632854h327.17536c28.315948 0 41.352498-18.643669 41.352498-41.632854v-271.384531h-0.140178z"  horiz-adv-x="1024" />

    
    <glyph glyph-name="lock" unicode="&#58898;" d="M836.39596 435.717172h-71.757576V586.343434c0 126.189899-113.648485 228.848485-253.414142 228.848485s-253.543434-102.658586-253.543434-228.848485V435.717172H185.923232C151.272727 435.717172 123.345455 410.505051 123.345455 379.21616200000005v-412.573738c0-31.288889 28.056566-56.630303 62.577777-56.630303H836.525253c34.521212 0 62.577778 25.341414 62.577777 56.630303V379.21616200000005c0 31.288889-28.056566 56.50101-62.70707 56.50101zM546.391919 162.26262599999995v-90.117171c0-4.008081-3.749495-7.369697-8.274747-7.369697h-53.785859c-4.525253 0-8.274747 3.361616-8.274747 7.369697v90.117171c-25.341414 11.636364-42.79596 35.038384-42.79596 62.448485 0 38.787879 34.909091 70.335354 77.963636 70.335354s77.963636-31.547475 77.963637-70.335354c0-27.410101-17.454545-50.812121-42.79596-62.448485zM667.410101 435.717172H355.038384V582.723232c0 77.705051 70.076768 141.058586 156.185858 141.058586s156.185859-63.224242 156.185859-141.058586V435.717172z"  horiz-adv-x="1024" />

    
    <glyph glyph-name="yingyongguanli" unicode="&#58881;" d="M512.00416 282a34.368 34.368 0 0 0-16.184 4.064L52.10016 524.992a34.16 34.16 0 0 0 0 60.128L495.82016 824.04a34.184 34.184 0 0 0 32.368 0l443.72-238.912a34.16 34.16 0 0 0 0-60.128L528.18816 286.06399999999996A34.368 34.368 0 0 0 512.00416 282zM140.27616 555.0640000000001L512.00416 354.89599999999996l371.728 200.16L512.00416 755.2239999999999l-371.728-200.16zM512.00416 115.73599999999999a34.056 34.056 0 0 0-15.032 3.496L19.11616 353.76800000000003C2.18016 362.06399999999996-4.80384 382.504 3.50016 399.432s28.768 23.936 45.68 15.6L512.00416 187.904l462.824 227.128c16.896 8.336 37.384 1.336 45.68-15.6s1.32-37.368-15.616-45.664L527.03616 119.24000000000001a33.96 33.96 0 0 0-15.032-3.504zM512.00416-59.327999999999975a34.056 34.056 0 0 0-15.032 3.496L19.11616 178.70399999999995C2.18016 187-4.80384 207.44000000000005 3.50016 224.36800000000005s28.768 23.968 45.68 15.6L512.00416 12.840000000000032l462.824 227.128c16.896 8.336 37.384 1.336 45.68-15.6s1.32-37.368-15.616-45.664l-477.856-234.528a33.96 33.96 0 0 0-15.032-3.504z"  horiz-adv-x="1024" />

    
    <glyph glyph-name="kongbaiyemian" unicode="&#58889;" d="M144.5 273.79999999999995h-13.6v13.6c0 2.4-1.9 4.3-4.3 4.3H122c-2.4 0-4.3-1.9-4.3-4.3v-13.6h-13.5c-2.4 0-4.3-1.9-4.3-4.3v-4.6c0-2.4 1.9-4.3 4.3-4.3h13.5v-13.5c0-2.4 1.9-4.3 4.3-4.3h4.6c2.4 0 4.3 1.9 4.3 4.3v13.5h13.6c2.4 0 4.3 1.9 4.3 4.3v4.6c0.1 2.3-1.9 4.3-4.3 4.3zM884.7 559v16.6h16.5c2.9 0 5.3 2.4 5.3 5.3v5.7c0 2.9-2.4 5.3-5.3 5.3h-16.5v16.5c0 2.9-2.4 5.3-5.3 5.3h-5.7c-2.9 0-5.3-2.4-5.3-5.3v-16.5h-16.5c-2.9 0-5.3-2.4-5.3-5.3v-5.7c0-2.9 2.4-5.3 5.3-5.3h16.5V559c0-2.9 2.4-5.3 5.3-5.3h5.7c3 0 5.3 2.4 5.3 5.3zM375.1 673.8c19.5 0 35.4 15.9 35.4 35.5s-15.9 35.5-35.4 35.5-35.4-15.9-35.4-35.5c-0.1-19.6 15.8-35.5 35.4-35.5z m0 58c12.4 0 22.5-10.1 22.5-22.5s-10.1-22.5-22.5-22.5-22.5 10.1-22.5 22.5 10 22.5 22.5 22.5z m526-494.7c-12 0-21.8-9.8-21.8-21.8s9.8-21.8 21.8-21.8 21.8 9.8 21.8 21.8-9.8 21.8-21.8 21.8z m0-32.7c-6 0-10.9 4.9-10.9 10.9s4.9 10.9 10.9 10.9 10.9-4.9 10.9-10.9-4.9-10.9-10.9-10.9zM143.4 460.9c-15 0-27.3-12.2-27.3-27.3 0-15 12.2-27.3 27.3-27.3 15 0 27.3 12.2 27.3 27.3-0.1 15.1-12.3 27.3-27.3 27.3z m0-40.9c-7.5 0-13.6 6.1-13.6 13.6s6.1 13.6 13.6 13.6 13.6-6.1 13.6-13.6-6.1-13.6-13.6-13.6z m543-58.3c0 9.6-8.1 17.3-18.1 17.3s-18.1-7.8-18.1-17.3c0-9.6 8.1-17.3 18.1-17.3s18.1 7.7 18.1 17.3z m60.4 17.4c-10 0-18.1-7.8-18.1-17.3 0-9.6 8.1-17.3 18.1-17.3 10 0 18.1 7.8 18.1 17.3-0.1 9.5-8.2 17.3-18.1 17.3z m-78.4-85.7l6.5-12.6s36.9 47.4 77.9 6.8V307s-45.3 40-84.4-13.6z m-39.9 260.3l16.4 114.6-376.1-49.1L240.2 515l1.2 0.6v-349.4l-60-50.9 379.3-73.7 4.7-1 52.3 67.7-0.2-1.2 201.7 74-10.8 323.5-179.9 49.1z m-370.7-54.6l179.5-43.6V212l-179.5-40.4V499.1zM557.7 57l-339.5 64.7 39.6 39 354.3-38.2-54.4-65.5z m54.5 81.9L302.1 168l149.5 31.5 160.5-16.9v-43.7z m0 60l-158.1 16.4V455.5l158.1 16.4v-273z m0 289.3l-163.5-16.4-179.9 43.7 343.4 32.8v-60.1z m0 76.4l-348.9-32.8 21.8 71 344.8 49.3-17.7-87.5z m16.3-431.2V537.3l163-42.6L803 193.39999999999998l-174.5-60zM752.4 669.4l-1.3-2.6-0.9-0.2c-9.5-13.7-28.2-27.3-64-35.3l-3.1 10.2s32.4 6.2 51.5 23.6l0.3 0.4c-16.9-0.6-48 3.2-42.8 39.5 0 0 24.5 49.1 64.9 5.9 0 0 4.6-12.2 0.9-27.4l2.1 0.8-0.4-0.9c4.4 2.2 9.1 4.7 14.2 7.9 0 0 41.8 34.6 40.8 63.6l13.3 0.2c-0.1 0.3-8.7-59.9-75.5-85.7z m-5.9 35.8s-28.5 32.3-45.4-9.1c0 0 7-28.9 43.2-18.5-0.1-0.1-0.2-0.3-0.2-0.4l0.4 0.4h-0.1c3.9 7.7 5.2 16.8 2.1 27.6z"  horiz-adv-x="1024" />

    
    <glyph glyph-name="sousuo" unicode="&#58909;" d="M338.6368 579.29728l-176.81408-64.3584a13.43488 13.43488 0 1 1 9.19552-25.25184l176.81408 64.3584a13.43488 13.43488 0 1 1-9.19552 25.25184zM1019.19744 589.02528L689.72544 865.4848a13.43488 13.43488 0 0 1-18.93376-1.65888l-206.1312-245.66784-34.42688 94.59712a13.43488 13.43488 0 0 1-17.22368 8.02816L8.84736 573.68576a13.43488 13.43488 0 0 1-8.02816-17.22368l183.87968-505.1904c2.53952-6.97344 6.6048-10.56768 13.57824-8.02816L286.72 76.75904v-92.57984C286.72-23.2448 300.032-35.84 307.456-35.84h430.09024C744.97024-35.84 757.76-23.2448 757.76-15.83104V48.2304c10.24 5.31456 18.944 11.68384 29.10208 18.98496l15.12448-16.81408-2.4064-1.55648c-4.6592-4.6592-7.64928-10.8544-7.64928-17.44896a23.552 23.552 0 0 1 7.0144-17.11104L931.16416-117.76h-0.03072c4.8128-10.24 11.1104-7.54688 17.42848-7.54688s12.62592 2.24256 17.43872 7.04512l18.3296 18.24768a24.64768 24.64768 0 0 1 0 34.84672L851.95776 67.19488c-4.6592 4.6592-10.8544 7.2192-17.44896 7.2192s-12.78976-2.57024-17.43872-7.22944l-1.56672-1.56672-15.14496 15.14496c40.61184 36.44416 66.22208 89.2928 66.22208 148.02944 0 42.496-13.44512 81.89952-36.23936 114.25792l190.5152 227.04128a13.44512 13.44512 0 0 1-1.65888 18.93376zM832.27648 51.968c1.536 1.536 2.93888 1.536 4.47488 0l132.37248-132.37248c1.2288-1.23904 1.2288-3.24608 0-4.48512l-18.3296-18.3296a3.1744 3.1744 0 0 0-4.48512 0L813.93664 29.16352c-0.768 0.768-0.9216 1.6384-0.9216 2.24256s0.16384 1.47456 0.9216 2.24256l1.8944 1.8944c2.14016-0.3072 5.92896 1.6896 9.39008 5.15072 3.46112 3.46112 5.45792 7.24992 5.15072 9.39008l1.90464 1.88416zM286.72 521.78944v-130.36544l-73.39008-28.03712c-6.97344-2.53952-8.74496-10.25024-6.20544-17.22368s7.51616-10.56768 14.4896-8.02816L286.72 362.81344v-143.03232l-18.2272-7.96672c-6.97344-2.53952-8.74496-10.25024-6.20544-17.22368s7.51616-10.56768 14.4896-8.02816L286.72 191.1808v-85.82144l-72.38656-27.67872c-6.97344-2.53952-12.86144 1.05472-15.40096 8.02816L34.3552 540.39552c-2.53952 6.97344 1.51552 14.68416 8.48896 17.22368l353.86368 128.7168a13.55776 13.55776 0 0 0 17.33632-8.02816l30.59712-82.72896L395.06944 537.6h-87.61344C300.032 537.6 286.72 529.21344 286.72 521.78944z m440.32-510.74048c0-7.41376-8.94976-26.40896-16.37376-26.40896H334.336c-7.424 0-16.896 18.9952-16.896 26.40896V494.90944c0 7.424 9.472 22.21056 16.896 22.21056h376.33024C718.09024 517.12 727.04 502.33344 727.04 494.90944v-75.4176c-30.72 5.31456-38.30784 8.21248-57.91744 8.21248-13.34272 0-27.09504-7.8336-39.71072-10.35264-2.41664 2.38592-6.47168-2.63168-10.1376-2.63168H431.104c-7.424 0-13.44512-2.816-13.44512-10.24s6.02112-10.24 13.44512-10.24H567.99232c-48.88576-20.48-84.60288-71.68-95.63136-122.88H431.11424c-7.424 0-13.44512-8.48896-13.44512-15.91296 0-6.3488 4.41344-12.30848 10.32192-13.7216 1.00352-0.23552 2.03776-1.08544 3.1232-1.08544h37.92896c-0.19456-10.24-0.29696-6.5024-0.29696-10.10688 0-46.70464 16.22016-92.29312 43.27424-123.01312h-80.90624c-7.424 0-13.44512-7.936-13.44512-15.36s6.02112-15.36 13.44512-15.36h106.74176c34.8672-20.48 81.69472-47.65696 131.2768-47.65696 19.6096 0 27.19744 3.62496 57.91744 8.93952v-27.0336z m118.03648 217.74336c0-67.71712-38.15424-126.67904-94.08512-156.5696-8.56064-4.57728-17.55136-8.448-26.88-11.58144a176.72192 176.72192 0 0 0-56.45312-9.25696c-34.39616 0-66.5088 9.87136-93.73696 26.88a178.40128 178.40128 0 0 0-33.32096 26.88 176.78336 176.78336 0 0 0-50.36032 123.648c0 3.61472 0.14336 7.18848 0.3584 10.752 0.55296 9.1648 1.80224 18.13504 3.69664 26.88 17.3056 79.80032 88.44288 139.776 173.35296 139.776 19.73248 0 38.7072-3.28704 56.45312-9.25696 9.32864-3.14368 18.31936-7.00416 26.88-11.58144a178.44224 178.44224 0 0 0 48.18944-37.632 178.01216 178.01216 0 0 0 16.81408-21.78048 176.2304 176.2304 0 0 0 29.09184-97.15712z m137.91232 337.98144L816.47616 364.29824A228.34176 228.34176 0 0 1 757.76 409.344v112.4352C757.76 529.21344 744.97024 537.6 737.55648 537.6h-72.43776l-53.4528 43.66336c-5.6832 4.77184-14.16192 3.44064-18.93376-2.2528-4.77184-5.6832-4.03456-13.27104 1.65888-18.04288L623.29856 537.6H430.15168l25.15968 28.80512 19.94752 23.18336L674.10944 826.24512a13.42464 13.42464 0 0 0 18.93376 1.50528l288.28672-241.9712c5.6832-4.77184 6.43072-13.32224 1.65888-19.00544zM715.33568 703.63136a13.43488 13.43488 0 1 1-17.27488-20.59264l144.13824-120.95488a13.43488 13.43488 0 1 1 17.27488 20.59264L715.33568 703.63136zM778.19904 322.72384a146.3296 146.3296 0 0 1-54.08768 39.79264 144.4352 144.4352 0 0 1-56.45312 11.42784c-67.0208 0-123.55584-45.6704-140.17536-107.52a143.68768 143.68768 0 0 1-4.53632-26.88 143.5648 143.5648 0 0 1-0.44032-10.752c0-52.224 27.72992-98.07872 69.23264-123.648a144.15872 144.15872 0 0 1 40.41728-17.09056 145.0496 145.0496 0 0 1 91.96544 7.0144 144.72192 144.72192 0 0 1 26.88 14.98112c37.35552 26.28608 61.82912 69.70368 61.82912 118.74304 0 25.82528-6.8096 50.0736-18.67776 71.10656a147.70176 147.70176 0 0 1-15.95392 22.82496zM750.99136 137.5232a124.13952 124.13952 0 0 0-26.88-18.688 122.78784 122.78784 0 0 0-56.45312-13.69088c-68.17792 0-123.648 55.47008-123.648 123.648 0 3.62496 0.19456 7.20896 0.50176 10.752 0.80896 9.28768 2.62144 18.28864 5.376 26.88 15.96416 49.83808 62.70976 86.016 117.78048 86.016 20.3264 0 39.51616-4.9664 56.45312-13.69088a124.24192 124.24192 0 0 0 26.88-18.688c4.75136-4.34176 9.13408-9.05216 13.1584-14.08a122.88 122.88 0 0 0 27.15648-77.19936c0-36.096-15.5648-68.63872-40.32512-91.25888zM692.92032 295.72096c-4.1984 4.1984-9.70752 5.49888-12.30848 2.89792l-48.14848-48.14848-10.68032-10.68032-2.38592-2.38592c-2.60096-2.60096-1.30048-8.11008 2.89792-12.30848 4.1984-4.1984 9.70752-5.49888 12.30848-2.89792l61.20448 61.20448c2.6112 2.6112 1.31072 8.12032-2.88768 12.31872zM700.8256 228.7104l-58.49088-58.49088c-2.48832-2.48832-1.09568-7.90528 3.10272-12.10368 4.1984-4.1984 9.61536-5.59104 12.10368-3.10272l58.49088 58.49088c2.48832 2.48832 1.09568 7.90528-3.10272 12.10368-4.20864 4.1984-9.6256 5.59104-12.10368 3.10272z"  horiz-adv-x="1024" />

    
    <glyph glyph-name="redu" unicode="&#58908;" d="M255.830405 557.159056C93.092018 415.645455 75.837013 169.034208 217.316781 6.284544s388.079737-179.925725 550.863235-38.513624 179.948281 388.079737 38.468512 550.829402S519.256824 801.04108 521.196602 896c-56.964074-84.63975-228.938963-267.227031-148.223881-491.090993-82.699971 22.871341-99.88731 101.624089-117.142316 152.250049z"  horiz-adv-x="1024" />

    
    <glyph glyph-name="yinpin" unicode="&#58903;" d="M0 896v-1024h1126.4V896H0z m1024-921.6H102.4V793.6h921.6v-819.2zM795.5968 395.9296a13.056 13.056 0 0 0-8.7552 7.2704 74.0864 74.0864 0 0 0-5.9392 24.1152 67.1232 67.1232 0 0 1-17.8176 41.984 88.7808 88.7808 0 0 1-44.3904 19.3024 125.8496 125.8496 0 0 0-55.552 26.6752 403.6096 403.6096 0 0 0-40.192 37.5296 23.296 23.296 0 0 1-23.808 10.9568 16.5376 16.5376 0 0 1-8.3968-16.0768v-99.9936c0-27.2896 0-56.6784-0.3584-88.32-0.4096-31.6928-0.3072-10.2912-0.3072-38.4512V204.8c0.256-13.2096-1.4848-26.368-5.1712-39.0144a103.168 103.168 0 0 0-22.4256-40.4992 135.5776 135.5776 0 0 0-43.6224-32.512 174.6432 174.6432 0 0 0-67.84-15.7696 143.7184 143.7184 0 0 0-125.9008 59.4432 100.2496 100.2496 0 0 0-17.8688 58.4192c0.8192 22.4256 10.1888 43.7248 26.2144 59.4432a143.7696 143.7696 0 0 0 56.0128 38.656 192.9216 192.9216 0 0 0 108.032 8.0384c14.6944-3.328 7.5264-16.5376 14.592-19.456V435.2c0 57.4464-0.4608 132.8128 0 204.8 6.144 14.4384 16.2304 26.88 29.1328 35.84a40.6016 40.6016 0 0 0 27.904 15.6672 28.16 28.16 0 0 0 24.1664-6.2464c7.3728-6.912 13.8752-14.7456 19.2-23.296 6.5024-10.24 14.592-21.2992 24.1664-33.9456 21.1968-24.9344 46.7456-45.7728 75.52-61.44 10.1888-5.12 20.48-9.3696 29.3888-13.5168 9.3184-4.2496 18.3296-9.2672 26.88-14.9504 11.1104-7.9872 20.992-17.6128 29.3376-28.4672 9.9328-11.1104 16.7424-24.7296 19.6608-39.424 2.304-12.288 2.4064-24.8832 0.3072-37.1712a76.1344 76.1344 0 0 0-10.1888-27.392 16.3328 16.3328 0 0 0-11.9808-9.8816v0.1536z"  horiz-adv-x="1126" />

    
    <glyph glyph-name="xiangshang" unicode="&#58890;" d="M511.99746960901336-45.64352026668598c-236.9129169108073 0-429.6393029483749 192.72722950122977-429.6393029483749 429.6460506576727 0 236.9129169108073 192.72722950122977 429.6393029483749 429.6393029483749 429.6393029483749 236.9179776927807 0 429.6460506576727-192.72722950122977 429.6460506576727-429.6393029483749-0.0008434636622299384-236.91966462010518-192.72722950122977-429.6460506576727-429.6460506576727-429.6460506576727v0ZM511.99746960901336 752.2663564935378c-203.06640707284433 0-368.2638261025512-165.19826249336907-368.2638261025512-368.2638261025512 0-203.07146785481777 165.19826249336907-368.26888688452453 368.2638261025512-368.26888688452453 203.07146785481777 0 368.26888688452453 165.19826249336907 368.26888688452453 368.26888688452453 0 203.06640707284433-165.19826249336907 368.2638261025512-368.26888688452453 368.2638261025512v0ZM686.9858148298852 435.4335706591195l-152.0005865704572 153.69088774956597c-8.962644874855325 9.084103642216435-22.219363254123266 11.35723821192612-33.359831304856286 6.8413337643470316-0.7026052306375387-0.27749954487364975-1.255073929398148-0.9505835473331407-1.9332187138310188-1.287125548562886-2.851750641999421-1.409427779586227-5.708562065972222-2.9453751085069446-8.100625012056328-5.311290681061921-0.02783430085358797-0.02783430085358797-0.02783430085358797-0.05988592001832563-0.05988592001832563-0.08856368453414352-0.02783430085358797-0.03289508282696759-0.05988592001832563-0.03289508282696759-0.09278100284529323-0.05988592001832563l-152.82465056845587-152.4037622010031c-12.002487913532025-11.967905903380595-12.030322214385611-31.392030580873854-0.06663362931616514-43.389457712432495 5.984374683521413-6.01811323001061 13.874133780020257-9.023374258535881 21.727623939043216-9.023374258535881 7.82902971281829 0 15.681676408179014 2.973209409360533 21.666051091700428 8.957584092881946l99.37182790195796 99.06396366524406v-292.5536843171297c0-16.96964542040413 13.748457694347998-30.69026881389854 30.685208031925168-30.69026881389854 16.94181111955054 0 30.69026881389854 13.721466857156638 30.69026881389854 30.69026881389854v294.1824126488957l100.6606403778453-101.76389084804208c5.984374683521413-6.077999150028936 13.901968080873845-9.112781406732255 21.817874550901823-9.112781406732255 7.796978093653549 0 15.59311272364487 2.9453751085069446 21.578330870828513 8.869863872010033 12.057313051576969 11.902115737726662 12.17877181893808 31.330457733531066 0.24291753472222222 43.389457712432495v0ZM686.9858148298852 435.4335706591195Z"  horiz-adv-x="1024" />

    
    <glyph glyph-name="PDF" unicode="&#59371;" d="M1001.3354666666665 627.0033269841269l-228.0236698412698 244.1129312169312c-8.322031746031746 8.876833862433863-20.527678306878304 14.424855026455026-32.73332486772486 14.424855026455026h-571.4461798941799c-26.630501587301588 0-47.712982010582-21.637282539682538-47.712982010582-47.712982010582v-307.3603724867725c0-18.30846984126984 14.97965714285714-33.28812698412698 33.28812698412698-33.28812698412698s33.28812698412698 14.97965714285714 33.28812698412698 33.28812698412698V794.5535661375661c0 13.315250793650794 10.541240211640211 23.856491005291 23.856491005291 23.856491005291h492.6642793650794v-209.16039788359788c0-27.74010582010582 22.74688677248677-50.486992592592586 50.486992592592586-50.486992592592586h191.96153227513227v-586.9806391534391c0-13.315250793650794-10.541240211640211-23.856491005291-23.856491005291-23.856491005291H154.70743703703704c-18.30846984126984 0-33.28812698412698-14.97965714285714-33.28812698412698-33.28812698412698s14.97965714285714-33.28812698412698 33.28812698412698-33.28812698412698h811.6754962962963c26.630501587301588 0 47.712982010582 21.637282539682538 47.712982010582 47.712982010582l-0.5548021164021164 666.8721439153439c-0.5548021164021164 11.650844444444443-4.438416931216931 22.74688677248677-12.205646560846558 31.068918518518515zM422.1220571428571 309.6565164021165c-8.322031746031746 3.3288126984126984-21.637282539682538 4.993219047619047-39.94575238095238 4.993219047619047h-49.377388359788355v-178.64628148148148h49.93219047619048c15.534459259259258 0 27.74010582010582 1.6644063492063492 36.062137566137565 4.438416931216931 8.876833862433863 2.7740105820105816 15.534459259259258 6.657625396825397 21.082480423280423 12.205646560846558 7.212427513227513 7.212427513227513 13.315250793650794 17.198865608465606 17.198865608465606 29.404512169312166 3.8836148148148144 12.205646560846558 6.102823280423279 27.185303703703703 6.102823280423279 44.93897142857143 0 24.411293121693117-3.8836148148148144 43.274565079365075-12.205646560846558 56.589815873015866-7.767229629629629 12.760448677248677-17.198865608465606 21.637282539682538-28.84971005291005 26.07569947089947zM9.904084656084649 390.65762539682544v-330.1072592592592c0-24.96609523809524 20.527678306878304-45.49377354497354 45.49377354497354-45.49377354497354h670.2009566137566c24.96609523809524 0 45.49377354497354 20.527678306878304 45.49377354497354 45.49377354497354V390.65762539682544c0 24.96609523809524-20.527678306878304 45.49377354497354-45.49377354497354 45.49377354497354H55.397858201058284c-24.96609523809524 0-45.49377354497354-20.527678306878304-45.49377354497354-45.49377354497354z m233.571691005291-166.44063492063492c-12.760448677248677-13.87005291005291-35.50733544973545-20.527678306878304-68.79546243386243-20.527678306878304H115.31648677248677v-94.8711619047619h-31.068918518518515v233.571691005291h88.21353650793651c15.534459259259258 0 27.185303703703703-0.5548021164021164 35.50733544973545-2.2192084656084656 11.650844444444443-1.6644063492063492 21.082480423280423-5.548021164021163 28.84971005291005-11.096042328042326 7.767229629629629-5.548021164021163 13.87005291005291-12.760448677248677 18.86327195767196-22.74688677248677 4.993219047619047-9.43163597883598 7.212427513227513-20.527678306878304 7.212427513227513-31.623720634920634 0-19.97287619047619-6.657625396825397-36.61693968253968-19.418074074074074-50.486992592592586z m245.77733756613753-44.93897142857143c-3.8836148148148144-13.87005291005291-9.43163597883598-24.96609523809524-16.089261375661376-33.8429291005291-6.657625396825397-8.876833862433863-13.315250793650794-16.089261375661376-21.082480423280423-21.082480423280423-7.767229629629629-4.993219047619047-17.198865608465606-8.876833862433863-27.74010582010582-11.650844444444443-11.096042328042326-2.7740105820105816-23.301688888888886-3.8836148148148144-37.72654391534392-3.8836148148148144H302.2848v233.571691005291h80.44630687830686c18.30846984126984 0 32.17852275132275-1.1096042328042328 41.61015873015873-3.3288126984126984 13.315250793650794-3.3288126984126984 24.96609523809524-8.876833862433863 34.39773121693121-16.64406349206349 12.205646560846558-10.541240211640211 21.637282539682538-23.856491005291 27.74010582010582-39.94575238095238 6.102823280423279-16.089261375661376 9.43163597883598-34.95253333333333 9.43163597883598-55.48021164021164-0.5548021164021164-18.30846984126984-2.7740105820105816-33.8429291005291-6.657625396825397-47.712982010582z m208.05079365079365 135.3717164021164h-126.49488253968254v-72.12427513227513h109.85081904761904v-27.74010582010582h-109.85081904761904v-105.96720423280422H539.7401058201059v233.571691005291h157.56380105820102v-27.74010582010582zM204.0848253968254 312.430526984127c-4.993219047619047 1.1096042328042328-14.97965714285714 2.2192084656084656-28.84971005291005 2.2192084656084656H115.31648677248677v-83.77511957671958h60.473430687830685c19.97287619047619 0 34.39773121693121 3.8836148148148144 42.71976296296296 11.096042328042326s12.760448677248677 17.753667724867725 12.760448677248677 31.623720634920634c0 9.986438095238094-2.2192084656084656 18.30846984126984-7.212427513227513 24.96609523809524-5.548021164021163 7.212427513227513-12.205646560846558 11.650844444444443-19.97287619047619 13.87005291005291z"  horiz-adv-x="1024" />

    
    <glyph glyph-name="feature" unicode="&#58901;" d="M432.549495 790.755556c24.307071 0 43.959596-19.652525 43.959596-43.959596v-282.246465c0-24.953535-20.169697-45.123232-45.123232-45.123232H150.30303C125.349495 419.426263 105.179798 439.59596 105.179798 464.549495V745.632323C105.179798 770.585859 125.349495 790.755556 150.30303 790.755556h282.246465m12.929293 57.40606H137.373737C88.113131 848.161616 47.773737 807.822222 47.773737 758.561616v-307.070707c0-49.260606 40.339394-89.6 89.6-89.6h307.070707c49.260606 0 89.6 40.339394 89.6 89.6V759.7252530000001C533.915152 808.468687 494.222222 848.161616 445.478788 848.161616z m0 0M874.731313 349.090909c24.307071 0 43.959596-19.652525 43.959596-43.959596v-282.246465c0-24.953535-20.169697-45.123232-45.123232-45.123232H592.484848c-24.953535 0-45.123232 20.169697-45.123232 45.123232V303.967677c0 24.953535 20.169697 45.123232 45.123232 45.123232h282.246465m12.929293 56.888889H579.555556c-49.260606 0-89.6-40.339394-89.6-89.6v-307.070707c0-49.260606 40.339394-89.6 89.6-89.6h307.070707c49.260606 0 89.6 40.339394 89.6 89.6V317.54343400000005c-0.129293 48.743434-39.822222 88.436364-88.565657 88.436364zM344.113131 260.654545c24.307071 0 43.959596-19.652525 43.959596-43.959596v-193.810101c0-24.953535-20.169697-45.123232-45.123232-45.123232h-192.646465c-24.953535 0-45.123232 20.169697-45.123232 45.123232V215.014141c0 24.953535 20.169697 45.123232 45.123232 45.123233h193.810101m12.929293 57.40606H137.373737c-49.260606 0-89.6-40.339394-89.6-89.6v-218.634343c0-49.260606 40.339394-89.6 89.6-89.6h218.634344c49.260606 0 89.6 40.339394 89.6 89.6v219.79798c-0.129293 48.743434-39.822222 88.436364-88.565657 88.436363zM776.985859 787.523232c8.533333 0 16.937374-3.232323 23.789899-9.567676l105.115151-105.115152c13.187879-13.187879 13.187879-34.391919 0-47.191919l-103.822222-103.822222c-7.49899-7.49899-17.842424-11.636364-28.444445-10.731314-7.628283 0.646465-14.480808 3.749495-20.557575 9.438384L647.951515 625.777778c-13.187879 13.187879-13.187879 34.391919 0 47.191919L753.713131 777.567677c6.335354 6.852525 14.868687 9.955556 23.272728 9.955555m0 56.888889c-20.686869 0-40.210101-7.886869-55.078788-22.755555l-118.044445-118.044445c-14.868687-14.868687-22.755556-33.874747-22.755555-55.078788 0-21.20404 7.886869-40.210101 22.755555-55.078788l118.044445-118.044444c14.868687-14.868687 33.874747-22.755556 55.078788-22.755556 20.686869 0 40.210101 7.886869 55.078787 22.755556L950.238384 593.454545c14.868687 14.868687 22.755556 33.874747 22.755555 55.078788 0 20.686869-7.886869 40.210101-22.755555 55.078788l-118.044445 118.044445C817.454545 836.266667 797.672727 844.541414 776.985859 844.412121z m0 0"  horiz-adv-x="1024" />

    
    <glyph glyph-name="falvfaguizhishiku" unicode="&#59062;" d="M505.380275 358.348348l65.858162-65.565848-38.000714-15.317212a634.933482 634.933482 0 0 0 180.38647-171.295529v-212.599384C540.604015 233.472153 118.299148 280.797659 118.299148 280.797659c13.154094 41.21616 84.770825 116.925276 84.770826 116.925276a792.957993 792.957993 0 0 0 281.205289-90.967865zM50.07325 77.523066s376.353233 90.061694 638.265852-162.759985c0 0-283.543795 365.157638-605.088305 295.236323-0.058463-0.146157-35.808366-91.201716-33.177547-132.476338zM0-45.248474v-32.154451A185.180406 185.180406 0 0 1 6.781666-127.096168s354.751288 192.605161 687.754475 8.769396c0 0-385.561099 291.319326-690.560682 133.791748 0-0.116925-3.069289-28.208223-3.975459-60.71345z m713.741118 151.476695v-212.570152c173.049409 339.901778 595.325044 387.227284 595.325044 387.227284-13.124862 41.245391-84.770825 116.925276-84.770825 116.925276-358.171353-47.179349-510.554219-291.670102-510.554219-291.670102z m30.020565-191.46514C1005.674301 167.58476 1382.027535 77.523066 1382.027535 77.523066c2.66005 41.362316-33.119085 132.447107-33.119085 132.447107-321.486047 69.862853-605.146767-295.294785-605.146767-295.294786z m-217.042545 464.953362l65.916625-65.595081 90.061694 29.669789-126.162373 125.694672z m51.944054 111.722101l126.162374-125.694672 279.68526 278.457545-126.133141 125.694673z m381.702565 380.007148l-0.263082 0.233851L878.985765 790.767251l126.133141-125.694672 75.738348 75.387572c1.403103 1.286178 2.923132 2.513893 4.180079 3.916997a88.395509 88.395509 0 0 1 0 125.402359 89.506299 89.506299 0 0 1-124.671576 1.636954zM737.535412-118.326772c333.032418 183.952691 687.812938-8.769396 687.812937-8.769396 13.943339 40.923847 2.923132 142.444218 2.923132 142.444218-305.116509 157.527578-690.73607-133.674822-690.736069-133.674822z"  horiz-adv-x="1433" />

    
    <glyph glyph-name="fuzhi" unicode="&#59023;" d="M192.853333 128h256v-64.853333h-256zM768 0c0-35.84-29.013333-64.853333-64.853333-64.853333H128c-35.84 0-63.146667 29.013333-63.146667 64.853333V575.146667c0 35.84 29.013333 64.853333 63.146667 64.853333h576.853333c35.84 0 64.853333-29.013333 64.853334-64.853333v-575.146667z m-63.146667 703.146667H128c-69.973333 0-128-58.026667-128-128v-575.146667C0-71.68 58.026667-128 128-128h576.853333c69.973333 0 128 58.026667 128 128V575.146667c0 69.973333-58.026667 128-128 128zM192.853333 512h447.146667v-64.853333H192.853333zM192.853333 384h447.146667v-64.853333H192.853333zM192.853333 256h447.146667v-64.853333H192.853333zM896 896H320.853333c-69.973333 0-128-58.026667-128-128H256c0 35.84 29.013333 64.853333 63.146667 64.853333h575.146666c35.84 0 64.853333-29.013333 64.853334-64.853333v-575.146667c0-35.84-29.013333-64.853333-64.853334-64.853333v-64.853333c69.973333 0 128 58.026667 128 128V768C1024 837.973333 965.973333 896 896 896z"  horiz-adv-x="1024" />

    
    <glyph glyph-name="xiangshang1" unicode="&#58910;" d="M1307.27876054 1030.66670154L1307.27876054-270.98842687l-1301.65512843 0L5.62363211 1030.66670154 1307.27876054 1030.66670154zM656.45119539 199.05355860999998L1090.33580408 551.2319720099999l-50.61616129 45.54881855L656.45119539 284.02690571999995l-383.25152528 312.7551852-50.6174636-45.54881853L656.45119539 199.05355860999998z"  horiz-adv-x="1311" />

    
    <glyph glyph-name="bianjiqi-dakai" unicode="&#58885;" d="M864.031841-128H148.250746C69.285572-128 5.094527-63.808955 5.094527 15.156219V730.937313C5.094527 809.902488 71.832836 890.905473 150.79801 890.905473h400.429851v-72.851742H150.79801c-39.737313 0-72.851741-33.114428-72.851741-72.851741l-1.018906-730.045771c0-39.737313 32.095522-71.323383 71.832836-71.323383l730.045771 1.018905c39.737313 0 72.851741 33.114428 72.851741 72.851742V417.623881H1024v-400.429851c0-78.455721-81.002985-145.19403-159.968159-145.19403z m123.797015 691.327363c-20.887562 0-36.171144 16.81194-36.171145 36.171144l-1.528358 174.232836L396.354229 245.428856c-14.774129-13.755224-38.208955-13.755224-52.473632 0-14.264677 13.755224-14.264677 36.171144 0 49.926368L892.561194 819.072637l-159.968159-1.018906c-20.887562 0-36.171144 16.81194-36.171144 36.171145 0 19.868657 15.793035 36.171144 36.171144 36.171144h253.707463c20.887562 0 37.19005-15.793035 37.190049-35.661692v-255.745273c0.509453-18.849751-15.283582-35.661692-35.661691-35.661692z m0 0"  horiz-adv-x="1029" />

    
    <glyph glyph-name="bianjiqi-bianji" unicode="&#58886;" d="M323.341621 326.205868c-0.509199-1.018399-1.527598-2.036798-1.527598-3.055197l-51.42914-194.004972c-3.055196-11.202387 0-23.423173 8.147191-32.079563 6.110393-6.110393 14.257583-9.674789 22.404773-9.674788 3.055196 0 5.601193 0.509199 8.147191 1.018398l186.366981 52.447539c0.509199 0 0.509199-0.509199 0.5092-0.509199 2.036798 0 4.073595 1.018399 5.601193 2.545997l498.506216 515.309796c14.766783 15.275982 22.913973 36.153158 22.913973 59.06713 0 25.96917-10.693187 51.42914-29.024366 70.778718l-46.846345 48.883142c-18.331179 19.349577-43.281949 30.042765-68.23272 30.042765-21.895574 0-42.26355-8.14719-57.030333-23.423173L323.85082 328.242665c-0.509199-0.509199-0.509199-1.527598-0.509199-2.036797m628.352064 382.917951l-49.392342-50.91994-80.453506 84.527101 48.883143 50.410741c7.637991 8.14719 22.404774 6.619592 31.570363-2.545997l47.355544-48.883143c5.091994-5.091994 7.637991-11.711586 7.637991-18.331179 0-5.601193-2.036798-10.693187-5.601193-14.257583m-539.751368-391.065142l359.494779 371.715565L851.890602 605.75634l-358.98558-371.206365-80.962705 83.508702zM346.255594 167.335654l25.96917 98.784684 69.251119-71.797116-95.220289-26.987568z m637.008454 337.599204c-18.840378 0-34.11636-15.785182-34.62556-35.643958v-480.175037c0-24.950771-19.858777-45.827946-44.300348-45.827947H119.15266c-24.441571 0-44.300348 20.367976-44.300348 45.827947v784.167081c0 25.45997 19.858777 45.827946 44.300348 45.827946h506.144207c18.840378 0 34.11636 15.785182 34.11636 35.643958 0 19.349577-15.275982 35.643958-34.11636 35.643959H114.060666c-59.57633-0.509199-107.950273-50.410741-107.950273-112.023869v-794.860269c0-61.613128 48.373943-111.514669 107.950273-111.514669h796.387867c59.57633 0 107.950273 49.901542 107.950274 111.514669V469.800099c-0.509199 19.349577-16.294381 35.134759-35.134759 35.134759"  horiz-adv-x="1028" />

    
    <glyph glyph-name="bianjiqi-shanchu" unicode="&#58887;" d="M966.431841 719.729353H61.643781c-16.302488 0-29.038806 13.245771-29.038806 29.038806 0 16.302488 13.245771 29.038806 29.038806 29.038806h904.78806c16.302488 0 29.038806-13.245771 29.038806-29.038806s-12.736318-29.038806-29.038806-29.038806z m-291.916418 117.17413h-320.955224c-16.302488 0-29.038806 13.245771-29.038806 29.038806 0 16.302488 13.245771 29.038806 29.038806 29.038806h320.955224c16.302488 0 29.038806-13.245771 29.038806-29.038806 0-16.302488-12.736318-29.038806-29.038806-29.038806z m-291.916418-759.084578V574.025871c0 16.302488 13.245771 29.038806 29.038806 29.038806 16.302488 0 29.038806-13.245771 29.038806-29.038806v-496.206966c0-16.302488-13.245771-29.038806-29.038806-29.038805-15.793035-0.509453-29.038806 12.736318-29.038806 29.038805z m204.290547 0V574.025871c0 16.302488 13.245771 29.038806 29.038806 29.038806 16.302488 0 29.038806-13.245771 29.038806-29.038806v-496.206966c0-16.302488-13.245771-29.038806-29.038806-29.038805-15.793035-0.509453-29.038806 12.736318-29.038806 29.038805zM178.308458 632.103483c16.302488 0 29.038806-13.245771 29.038806-29.038806v-612.871642c0-32.095522 25.98209-58.587065 58.587064-58.587065h496.206966c32.095522 0 58.587065 25.98209 58.587064 58.587065V603.064677c0 16.302488 13.245771 29.038806 29.038806 29.038806 16.302488 0 29.038806-13.245771 29.038806-29.038806v-642.419901c0-48.39801-39.227861-87.625871-87.62587-87.625871H236.895522c-48.39801 0-87.625871 39.227861-87.62587 87.625871V603.064677c0 16.302488 12.736318 29.038806 29.038806 29.038806z m0 0"  horiz-adv-x="1024" />

    
    </font>
</defs>
</svg>
