<?xml version="1.0" encoding="utf-8"?>
<!-- Generator: Adobe Illustrator 21.0.2, SVG Export Plug-In . SVG Version: 6.00 Build 0)  -->
<svg version="1.1" id="图层_1" xmlns="http://www.w3.org/2000/svg" xmlns:xlink="http://www.w3.org/1999/xlink" x="0px" y="0px"
	 viewBox="0 0 115 17" style="enable-background:new 0 0 115 17;" xml:space="preserve">
<style type="text/css">
	.st0{fill:#303030;}
	.st1{fill:#0081BA;}
</style>
<path class="st0" d="M88.8,1.5h5.7c1.2,0,2.1,0.1,2.7,0.2c0.6,0.2,1.2,0.4,1.6,0.8c0.4,0.4,0.7,0.9,0.9,1.4c0.2,0.6,0.3,1.4,0.3,2.5
	v1.4h-3.7V7.1c0-1-0.2-1.7-0.5-2c-0.3-0.4-1-0.5-2-0.5h-1.1v8.8c0,1.3-1,2.3-2.3,2.3h-1.6V1.5z"/>
<g>
	
		<rect x="18.3" y="4.5" transform="matrix(-1.836970e-16 1 -1 -1.836970e-16 28.1351 -11.1229)" class="st1" width="2.7" height="8"/>
	
		<rect x="18.3" y="-1.2" transform="matrix(-1.836970e-16 1 -1 -1.836970e-16 22.4702 -16.7878)" class="st1" width="2.7" height="8"/>
	<rect x="18.3" y="10.2" transform="matrix(-1.836970e-16 1 -1 -1.836970e-16 33.8 -5.458)" class="st1" width="2.7" height="8"/>
</g>
<g>
	
		<rect x="28.5" y="4.5" transform="matrix(-1.836970e-16 1 -1 -1.836970e-16 38.3398 -21.3276)" class="st1" width="2.7" height="8"/>
	
		<rect x="28.5" y="-1.2" transform="matrix(-1.836970e-16 1 -1 -1.836970e-16 32.6749 -26.9925)" class="st1" width="2.7" height="8"/>
	
		<rect x="28.5" y="10.2" transform="matrix(-1.836970e-16 1 -1 -1.836970e-16 44.0047 -15.6627)" class="st1" width="2.7" height="8"/>
</g>
<path class="st0" d="M4.1,1.5v14h-3v-14H4.1z M4.2,8.4l5.3-6.9h3.9L7.6,8.4l5.6,7.1H9.3L4.2,8.4z"/>
<path class="st0" d="M39.2,10.6v4.9h-3v-14h7c1.3,0,2.2,0.1,2.7,0.3c0.9,0.3,1.6,0.9,2.2,1.9c0.4,0.7,0.6,1.5,0.6,2.4
	c0,0.7-0.1,1.4-0.4,2c-0.3,0.6-0.6,1.2-1.1,1.6c-0.4,0.4-0.9,0.6-1.3,0.8c-0.5,0.1-1.1,0.2-1.9,0.2H39.2z M39.2,8.1h4
	c0.7,0,1.2-0.1,1.5-0.3c0.4-0.3,0.7-1,0.7-1.8c0-0.9-0.3-1.5-1-1.8C44.2,4.1,43.8,4,43.3,4h-4.1V8.1z"/>
<path class="st0" d="M52.9,1.5L56,12L59,1.5h3.3L65.2,12l3.1-10.5h3.1l-4.5,14h-3.4L60.6,5.4l-2.9,10.1h-3.4l-4.5-14H52.9z"/>
<path class="st0" d="M79.3,1.4c1.4,0,2.6,0.2,3.7,0.7c1.2,0.6,2.1,1.5,2.6,2.9c0.4,1,0.6,2.3,0.6,3.7c0,1.4-0.2,2.7-0.7,3.7
	c-0.6,1.2-1.5,2.1-2.8,2.6c-0.9,0.4-2,0.5-3.2,0.5c-1.6,0-3-0.3-4.1-0.9c-1-0.5-1.7-1.3-2.2-2.3c-0.5-1-0.8-2.3-0.8-3.8
	c0-2.7,0.7-4.6,2-5.7C75.5,1.9,77.1,1.4,79.3,1.4z M79.3,3.8c-1.4,0-2.3,0.4-2.9,1.3c-0.5,0.7-0.7,1.8-0.7,3.4
	c0,1.6,0.3,2.8,0.9,3.6c0.6,0.8,1.5,1.1,2.8,1.1c1.2,0,2.1-0.4,2.7-1.2c0.6-0.8,0.9-2,0.9-3.6c0-1.5-0.2-2.6-0.7-3.4
	C81.7,4.3,80.7,3.8,79.3,3.8z"/>
<path class="st0" d="M104.6,1.5v14h-3v-14H104.6z M104.7,8.4l5.3-6.9h3.9l-5.9,6.9l5.6,7.1h-3.9L104.7,8.4z"/>
</svg>
